<svg height="496pt" viewBox="0 0 496 496" width="496pt" xmlns="http://www.w3.org/2000/svg"><path d="m483.679688 424.40625-83.679688-83.6875v-340.71875h-400v432h372.65625l51.71875 51.71875c7.921875 7.921875 18.457031 12.28125 29.648438 12.28125 23.128906 0 41.9375-18.816406 41.9375-41.9375.007812-11.214844-4.359376-21.742188-12.28125-29.65625zm-29.65625 55.59375c-6.824219 0-13.511719-2.769531-18.335938-7.59375l-56.40625-56.40625h-363.28125v-400h368v308.71875l-8.03125-8.03125-12.480469 12.480469-19.785156-19.785157c15.273437-21.992187 24.296875-48.640624 24.296875-77.382812 0-37.496094-15.257812-71.503906-39.886719-96.128906l13.695313-32.09375c.734375.070312 1.4375.222656 2.191406.222656 13.230469 0 24-10.769531 24-24s-10.769531-24-24-24-24 10.769531-24 24c0 6.710938 2.785156 12.777344 7.246094 17.136719l-11.8125 27.6875c-23.066406-17.992188-51.976563-28.824219-83.433594-28.824219-23.601562 0-45.800781 6.054688-65.160156 16.671875l-7.808594-22.121094c5.425781-4.398437 8.96875-11.03125 8.96875-18.550781 0-13.230469-10.769531-24-24-24s-24 10.769531-24 24c0 2.367188.449219 4.609375 1.089844 6.769531l-51.523438 37.46875c-3.855468-2.664062-8.527344-4.238281-13.566406-4.238281-13.230469 0-24 10.769531-24 24s10.769531 24 24 24 24-10.769531 24-24c0-2.367188-.449219-4.609375-1.089844-6.769531l51.523438-37.46875c3.863281 2.664062 8.527344 4.230469 13.558594 4.238281l9.007812 25.519531c-34.449219 24.695313-57 64.960938-57 110.480469 0 44.351562 21.433594 83.6875 54.382812 108.527344l-12.414062 43.472656h-9.96875v-16h-16v16h-16v-32h-16v32h-16v-48h-16v48h-16v16h118.03125l14.335938-50.175781c19.953124 11.496093 43 18.175781 67.632812 18.175781 28.9375 0 55.734375-9.152344 77.808594-24.625l19.726562 19.730469-12.878906 12.894531 29.574219 29.574219 11.3125-11.308594-18.261719-18.265625 36.6875-36.6875 96.40625 96.40625c4.898438 4.898438 7.59375 11.410156 7.59375 18.34375 0 14.304688-11.640625 25.9375-25.945312 25.9375zm-113.167969-128.199219-18.464844-18.464843c3.984375-3.558594 7.753906-7.335938 11.296875-11.335938l18.480469 18.480469zm-228.855469-119.800781c0-38.496094 18.296875-72.726562 46.566406-94.695312l5.707032 16.167968c-22.195313 19.199219-36.273438 47.464844-36.273438 78.527344 0 53.695312 41.921875 99.191406 95.433594 103.574219l1.300781-15.949219c-45.269531-3.703125-80.734375-42.191406-80.734375-87.625 0-24.046875 10-46.078125 26.0625-62.113281l6.90625 19.5625c-5.425781 4.398437-8.96875 11.03125-8.96875 18.550781 0 13.230469 10.769531 24 24 24 4.761719 0 9.167969-1.433594 12.902344-3.832031l36.417968 28.328125c-.792968 2.375-1.320312 4.863281-1.320312 7.503906 0 13.230469 10.769531 24 24 24s24-10.769531 24-24c0-6.710938-2.785156-12.777344-7.246094-17.136719l26-60.933593c8.382813 13.476562 13.246094 29.292968 13.246094 46.070312 0 45.433594-35.464844 83.921875-80.734375 87.625l1.300781 15.949219c53.511719-4.382813 95.433594-49.878907 95.433594-103.574219 0-23.664062-8.160156-45.726562-21.855469-63.390625l7.070313-16.578125c19.074218 21.257812 30.785156 49.234375 30.785156 79.96875 0 66.167969-53.832031 120-120 120s-120-53.832031-120-120zm190.265625-76.320312c-16.53125-15.246094-37.960937-25.3125-61.699219-27.253907l-1.300781 15.949219c22.09375 1.808594 41.824219 11.945312 56.261719 27.097656l-29.335938 68.75c-.734375-.070312-1.4375-.222656-2.191406-.222656-4.761719 0-9.175781 1.433594-12.902344 3.832031l-36.417968-28.328125c.792968-2.375 1.320312-4.863281 1.320312-7.503906 0-13.230469-10.761719-23.992188-23.984375-24l-8.800781-24.9375c12.074218-8.132812 26.210937-13.4375 41.519531-14.6875l-1.300781-15.949219c-16.671875 1.367188-32.210938 6.726563-45.714844 15.078125l-5.445312-15.425781c17.613281-10.167969 37.972656-16.078125 59.726562-16.078125 29.265625 0 56.097656 10.558594 76.945312 28.03125zm-38.265625 100.320312c4.40625 0 8 3.585938 8 8s-3.59375 8-8 8-8-3.585938-8-8 3.59375-8 8-8zm-72-56c4.40625 0 8 3.585938 8 8s-3.59375 8-8 8-8-3.585938-8-8 3.59375-8 8-8zm144-120c0-4.414062 3.59375-8 8-8s8 3.585938 8 8-3.59375 8-8 8-8-3.585938-8-8zm-200-8c0-4.414062 3.59375-8 8-8s8 3.585938 8 8-3.59375 8-8 8-8-3.585938-8-8zm-72 64c0 4.414062-3.59375 8-8 8s-8-3.585938-8-8 3.59375-8 8-8 8 3.585938 8 8zm0 0"/></svg>