<svg height="512" viewBox="0 0 64 64" width="512" xmlns="http://www.w3.org/2000/svg"><g id="Workspace-Idea-Book-Lesson-Pencil"><path d="m3 15h58v37h-58z" fill="#a97c50"/><path d="m36 12h21v36h-21z" fill="#e6e7e8"/><path d="m55 12v8l-2-2-2 2v-8z" fill="#d8d7da"/><path d="m53 12v6l-2-2-2 2v-6z" fill="#ff5023"/><path d="m36 10v2h-8v-2a4 4 0 0 1 8 0z" fill="#d1d3d4"/><path d="m34.22 53-2.22 5-2.22-5z" fill="#898890"/><path d="m32 16h4v33h-4z" fill="#00b39d"/><path d="m36 49-1.33 3-.45 1h-4.44l-.45-1-1.33-3z" fill="#c6c5ca"/><path d="m28 16h4v33h-4z" fill="#00ccb3"/><path d="m28 12h8v4h-8z" fill="#ff9811"/><path d="m7 12h21v36h-21z" fill="#e6e7e8"/><path d="m28 31v17h-17z" fill="#d8d7da"/><path d="m57 31v17h-17z" fill="#d8d7da"/><g fill="#bcbec0"><path d="m40 21h14v2h-14z"/><path d="m40 25h14v2h-14z"/><path d="m40 29h14v2h-14z"/><path d="m40 33h14v2h-14z"/><path d="m40 37h14v2h-14z"/><path d="m40 41h14v2h-14z"/><path d="m40 17h5v2h-5z"/><path d="m10 21h14v2h-14z"/><path d="m10 25h14v2h-14z"/><path d="m10 29h14v2h-14z"/><path d="m10 33h14v2h-14z"/><path d="m10 37h14v2h-14z"/><path d="m10 41h14v2h-14z"/><path d="m14 17h10v2h-10z"/><path d="m10 17h2v2h-2z"/></g><path d="m6 55h2v2h-2z" fill="#ff9811"/><path d="m10 55h2v2h-2z" fill="#ff9811"/><path d="m14 55h2v2h-2z" fill="#ff9811"/><path d="m18 55h2v2h-2z" fill="#ff9811"/><path d="m44 55h2v2h-2z" fill="#ff9811"/><path d="m48 55h2v2h-2z" fill="#ff9811"/><path d="m52 55h2v2h-2z" fill="#ff9811"/><path d="m56 55h2v2h-2z" fill="#ff9811"/></g></svg>