<svg id="Capa_1" enable-background="new 0 0 512 512" height="512" viewBox="0 0 512 512" width="512" xmlns="http://www.w3.org/2000/svg" xmlns:xlink="http://www.w3.org/1999/xlink"><linearGradient id="SVGID_1_" gradientUnits="userSpaceOnUse" x1="256" x2="256" y1="451" y2="61"><stop offset="0" stop-color="#5558ff"/><stop offset="1" stop-color="#00c0ff"/></linearGradient><g><g><path d="m197.978 303.08c-47.55-6.304-85.705 1.832-126.709 15.439-7.852 2.607-12.114 11.104-9.507 18.97 2.585 7.754 10.97 12.124 18.97 9.507 37.772-12.561 71.444-19.708 113.291-14.18 8.291 1.128 15.762-4.673 16.846-12.891 1.098-8.217-4.688-15.761-12.891-16.845zm0-75c-47.55-6.304-85.705 1.832-126.709 15.439-7.852 2.607-12.114 11.104-9.507 18.97 2.585 7.754 10.97 12.124 18.97 9.507 37.772-12.561 71.444-19.708 113.291-14.18 8.291 1.157 15.762-4.688 16.846-12.891 1.098-8.217-4.688-15.761-12.891-16.845zm-126.709-59.56c-7.852 2.607-12.114 11.104-9.507 18.97 2.585 7.754 10.97 12.124 18.97 9.507 37.772-12.561 71.444-19.708 113.291-14.18 8.291 1.011 15.762-4.688 16.846-12.891 1.099-8.218-4.688-15.762-12.891-16.846-47.55-6.304-85.706 1.832-126.709 15.44zm369.462 150c-41.485-13.768-79.479-21.701-126.709-15.439-8.203 1.084-13.989 8.628-12.891 16.846 1.084 8.218 8.613 14.019 16.846 12.891 42.2-5.575 76.103 1.813 113.291 14.18 7.988 2.613 16.381-1.742 18.97-9.507 2.608-7.868-1.655-16.364-9.507-18.971zm0-75c-41.485-13.768-79.479-21.701-126.709-15.439-8.203 1.084-13.989 8.628-12.891 16.846 1.084 8.203 8.613 14.048 16.846 12.891 42.2-5.575 76.103 1.813 113.291 14.18 7.988 2.613 16.381-1.742 18.97-9.507 2.608-7.868-1.655-16.364-9.507-18.971zm-126.709-90.44c-8.203 1.084-13.989 8.628-12.891 16.846 1.084 8.203 8.613 13.901 16.846 12.891 42.2-5.575 76.103 1.813 113.291 14.18 7.988 2.613 16.381-1.742 18.97-9.507 2.607-7.866-1.655-16.362-9.507-18.97-41.485-13.768-79.478-21.702-126.709-15.44zm182.978-62.08c-27.568 0-49.296-6.914-71.254-14.224-23.262-7.763-47.314-15.776-79.746-15.776-45.555 0-75.375 15.842-90 26.032-14.625-10.19-44.445-26.032-90-26.032-32.432 0-56.484 8.013-79.746 15.776-21.958 7.31-43.686 14.224-71.254 14.224-8.291 0-15 6.709-15 15v330c0 8.291 6.709 15 15 15 32.432 0 57.484-8.013 80.746-15.776 21.958-7.31 42.686-14.224 70.254-14.224 52.368 0 78.398 24.639 79.482 25.693 2.915 2.871 6.709 4.307 10.518 4.307 3.285 0 6.462-1.298 9.177-3.446.427-.331.943-.476 1.34-.86 1.085-1.055 27.115-25.694 79.483-25.694 27.568 0 48.296 6.914 70.254 14.224 23.262 7.763 48.314 15.776 80.746 15.776 8.291 0 15-6.709 15-15v-330c0-8.291-6.709-15-15-15zm-256 317.049c-16.802-8.555-41.77-17.049-75-17.049-32.432 0-56.484 8.013-79.746 15.776-17.783 5.918-35.775 11.587-56.254 13.521v-299.883c25.137-1.978 46.22-8.672 65.746-15.19 21.958-7.31 42.686-14.224 70.254-14.224 41.062 0 65.695 15.019 75 22.024zm241 12.248c-20.479-1.934-38.471-7.603-56.254-13.521-23.262-7.763-47.314-15.776-79.746-15.776-33.23 0-58.198 8.494-75 17.049v-295.018c9.384-7.068 34.012-22.031 75-22.031 27.568 0 48.296 6.914 70.254 14.224 19.526 6.519 40.609 13.213 65.746 15.19z" fill="url(#SVGID_1_)"/></g></g></svg>