<svg height="512" viewBox="0 0 64 64" width="512" xmlns="http://www.w3.org/2000/svg"><path d="m56 29h5v22h-5z" fill="#ff3051"/><path d="m61 25v4h-5-5v-4z" fill="#57a4ff"/><path d="m61 24v1h-10v-1a5 5 0 1 1 10 0z" fill="#ffde55"/><path d="m55 3a4 4 0 0 0 -4 4v8h10v-12z" fill="#ffeb99"/><path d="m61 51-5 10-5-10h5z" fill="#ffde55"/><path d="m51 29h5v22h-5z" fill="#b2fa09"/><path d="m50.99 6.85a3.987 3.987 0 0 0 -3.99-3.85h-6v12h10v-8a.757.757 0 0 0 -.01-.15z" fill="#ffeb99"/><path d="m46 33a14.724 14.724 0 0 1 -5.76 11.64 5.828 5.828 0 0 0 -2.24 4.67v1.69h-12v-1.69a5.888 5.888 0 0 0 -2.3-4.71 14.618 14.618 0 0 1 -4.63-17.02 14.012 14.012 0 0 1 26.93 5.42zm-4 0a3.975 3.975 0 0 0 -2.26-3.59 3.881 3.881 0 0 0 .26-1.41 4 4 0 0 0 -7.87-1 3.657 3.657 0 0 0 -.13 1 3.657 3.657 0 0 0 -.13-1 4 4 0 0 0 -7.87 1 3.881 3.881 0 0 0 .26 1.41 3.981 3.981 0 0 0 0 7.18 3.881 3.881 0 0 0 -.26 1.41 4 4 0 0 0 8 0 4 4 0 0 0 8 0 3.881 3.881 0 0 0 -.26-1.41 3.975 3.975 0 0 0 2.26-3.59z" fill="#ffcd00"/><path d="m39.74 29.41a3.981 3.981 0 0 1 0 7.18 3.881 3.881 0 0 1 .26 1.41 4 4 0 0 1 -8 0v-10a3.657 3.657 0 0 1 .13-1 4 4 0 0 1 7.87 1 3.881 3.881 0 0 1 -.26 1.41z" fill="#ff9811"/><path d="m38 51a2.006 2.006 0 0 1 2 2 2.015 2.015 0 0 1 -2 2h-12a2.006 2.006 0 0 1 -2-2 2.015 2.015 0 0 1 2-2z" fill="#46f8ff"/><path d="m26 55h12a6 6 0 0 1 -6 6 6.009 6.009 0 0 1 -6-6z" fill="#ff7956"/><path d="m24.26 29.41a3.881 3.881 0 0 1 -.26-1.41 4 4 0 0 1 7.87-1 3.657 3.657 0 0 1 .13 1v10a4 4 0 0 1 -8 0 3.881 3.881 0 0 1 .26-1.41 3.981 3.981 0 0 1 0-7.18z" fill="#ff9811"/><path d="m3 3v4 4 4h20v-2-2-4-2-2z" fill="#46f8ff"/><path d="m3 44v-4-4-4-4-4-5h10v42h-10v-5-4-4z" fill="#ffc477"/><path d="m41.745 21.6a15.089 15.089 0 0 0 -12.17-3.406 14.91 14.91 0 0 0 -11.429 9.006 15.506 15.506 0 0 0 4.954 18.193 4.934 4.934 0 0 1 1.9 3.918v.873a2.982 2.982 0 0 0 .054 5.649 7 7 0 0 0 13.892 0 2.982 2.982 0 0 0 .054-5.649v-.87a4.838 4.838 0 0 1 1.843-3.877 15.627 15.627 0 0 0 6.157-12.437 14.989 14.989 0 0 0 -5.255-11.4zm-9.745 38.4a5.008 5.008 0 0 1 -4.9-4h9.8a5.008 5.008 0 0 1 -4.9 4zm6-6h-12a1 1 0 0 1 0-2h12a1 1 0 0 1 0 2zm1.64-10.161a6.848 6.848 0 0 0 -2.64 5.475v.686h-10v-.689a6.942 6.942 0 0 0 -2.69-5.51 13.693 13.693 0 0 1 -4.31-15.839 12.9 12.9 0 0 1 9.889-7.795 13.006 13.006 0 0 1 15.111 12.833 13.8 13.8 0 0 1 -5.36 10.839z"/><path d="m3 16h20a1 1 0 0 0 1-1v-12a1 1 0 0 0 -1-1h-20a1 1 0 0 0 -1 1v12a1 1 0 0 0 1 1zm1-12h18v10h-18z"/><path d="m61 2h-6a4.982 4.982 0 0 0 -4 2.031 4.982 4.982 0 0 0 -4-2.031h-6a1 1 0 0 0 -1 1v12a1 1 0 0 0 1 1h20a1 1 0 0 0 1-1v-12a1 1 0 0 0 -1-1zm-19 2h5a3 3 0 0 1 3 3v7h-8zm18 10h-8v-7a3 3 0 0 1 3-3h5z"/><path d="m13 18h-10a1 1 0 0 0 -1 1v42a1 1 0 0 0 1 1h10a1 1 0 0 0 1-1v-42a1 1 0 0 0 -1-1zm-1 42h-8v-3h5v-2h-5v-2h3v-2h-3v-2h5v-2h-5v-2h3v-2h-3v-2h5v-2h-5v-2h3v-2h-3v-2h5v-2h-5v-2h3v-2h-3v-2h5v-2h-5v-3h8z"/><path d="m56 18a6.006 6.006 0 0 0 -6 6v27a1 1 0 0 0 .1.447l5 10a1 1 0 0 0 1.79 0l5-10a1 1 0 0 0 .11-.447v-27a6.006 6.006 0 0 0 -6-6zm0 2a4 4 0 0 1 4 4h-8a4 4 0 0 1 4-4zm1 30v-20h3v20zm-5 0v-20h3v20zm0-22v-2h8v2zm4 30.764-3.382-6.764h6.764z"/><path d="m6 6h4v2h-4z"/><path d="m12 6h8v2h-8z"/><path d="m6 10h4v2h-4z"/><path d="m12 10h8v2h-8z"/><path d="m44 6h4v2h-4z"/><path d="m44 10h4v2h-4z"/><path d="m54 6h4v2h-4z"/><path d="m54 10h4v2h-4z"/><path d="m26 4h2v2h-2z"/><path d="m30 4h4v2h-4z"/><path d="m36 4h2v2h-2z"/><path d="m26 12h2v2h-2z"/><path d="m30 12h4v2h-4z"/><path d="m36 12h2v2h-2z"/><path d="m40.906 28.947a4.991 4.991 0 0 0 -8.906-3.928 4.987 4.987 0 0 0 -8.9 3.932 4.965 4.965 0 0 0 0 8.1 4.985 4.985 0 0 0 8.9 3.918 4.984 4.984 0 0 0 8.905-3.92 4.965 4.965 0 0 0 0-8.1zm-12.906 12.053a3 3 0 0 1 -3-3c0-.036.008-.069.009-.1a4.922 4.922 0 0 0 .991.1 5.013 5.013 0 0 0 2.5-.674l-1-1.732a2.938 2.938 0 0 1 -2.811.094 2.982 2.982 0 0 1 .024-5.387 2.959 2.959 0 0 1 2.787.105l1-1.732a5.1 5.1 0 0 0 -3.489-.566c0-.037-.01-.071-.01-.108a3 3 0 0 1 5.907-.729 2.634 2.634 0 0 1 .092.729v10a3 3 0 0 1 -3 3zm11.286-5.3a2.959 2.959 0 0 1 -2.787-.1l-1 1.732a4.915 4.915 0 0 0 3.49.57c0 .035.009.068.009.1a3 3 0 0 1 -6 0v-10.002a2.713 2.713 0 0 1 .1-.754 3 3 0 0 1 5.902.754c0 .037-.008.071-.01.107a5.057 5.057 0 0 0 -3.489.567l1 1.732a2.932 2.932 0 0 1 2.811-.094 2.982 2.982 0 0 1 -.024 5.387z"/></svg>