<svg id="_Layer_" data-name="&lt;Layer&gt;" xmlns="http://www.w3.org/2000/svg" viewBox="0 0 1211.29 1338.35"><defs><style>.cls-1{fill:#d2e2f5;}.cls-2{fill:#5a8dbf;}.cls-3{fill:#c0e3e9;}.cls-4{fill:#fac88f;}.cls-5{fill:#f8a404;}.cls-6{fill:#edf6f7;}.cls-7{fill:#93d2db;}.cls-8{fill:#f5ae9e;}.cls-9{fill:#f8c180;}.cls-10{fill:#7aa6d7;}.cls-11{fill:#ee7e94;}.cls-12{fill:#607dbf;}.cls-13{fill:#5961aa;}.cls-14{fill:#b5c7e8;}.cls-15{fill:#9aaeda;}.cls-16{fill:#59549f;}</style></defs><path class="cls-1" d="M1057.15,435.06c0,22.45-19.7,40.65-44,40.65-12.63,0-141,2-150.31,2-25.52,0-46.21-19.12-46.21-42.67s20.69-42.67,46.21-42.67c1.61,0,3.22.11,4.83.21,11.17-21.41,34.88-36.23,62.27-36.23,29.73,0,55.09,17.36,64.81,41.74a46.74,46.74,0,0,1,18.4-3.74C1037.45,394.37,1057.15,412.61,1057.15,435.06Z"/><polygon class="cls-2" points="454.06 425.8 924.03 425.35 924.03 1276.98 253.16 1276.98 253.16 425.35 437.23 425.35 454.06 425.8"/><polygon class="cls-3" points="690.33 1245.32 291.91 1245.32 291.91 457.01 884.95 457.01 884.95 1245.32 707.39 1245.32 690.33 1245.32"/><rect class="cls-4" x="291.91" y="450.88" width="593.36" height="56.14"/><path class="cls-5" d="M700.39,419.9H635.05a19.36,19.36,0,0,1-19.36-19.35V386.8a35.24,35.24,0,0,0-35.25-35.24h-.73a35.26,35.26,0,0,0-35.24,35.24v13.75a19.34,19.34,0,0,1-19.36,19.35H459.77a5.9,5.9,0,0,0-5.88,5.88v14.41a28,28,0,0,0,28,28H678.29a28,28,0,0,0,28-28V425.78A5.9,5.9,0,0,0,700.39,419.9ZM594.71,391.76a14.82,14.82,0,1,1-28.93-6.25,14.61,14.61,0,0,1,10.1-10.3A14.85,14.85,0,0,1,594.71,391.76Z"/><path d="M580.1,406.69A17.18,17.18,0,0,1,566.43,400a17.37,17.37,0,0,1-3-15.09,17.18,17.18,0,0,1,11.84-12.09,17.31,17.31,0,0,1,21.92,19.32,17.21,17.21,0,0,1-17,14.55Zm0-29.59a13.15,13.15,0,0,0-3.54.5,12.13,12.13,0,0,0-8.37,8.54A12.48,12.48,0,0,0,570.34,397a12.32,12.32,0,1,0,9.76-19.87Z"/><rect class="cls-6" x="331.01" y="564.1" width="104.47" height="104.48" rx="8.2"/><path d="M427.28,671.06H339.2a10.69,10.69,0,0,1-10.67-10.68V572.3a10.69,10.69,0,0,1,10.67-10.67h88.08A10.69,10.69,0,0,1,438,572.3v88.08A10.69,10.69,0,0,1,427.28,671.06ZM339.2,566.58a5.73,5.73,0,0,0-5.72,5.72v88.08a5.73,5.73,0,0,0,5.72,5.72h88.08a5.73,5.73,0,0,0,5.72-5.72V572.3a5.73,5.73,0,0,0-5.72-5.72Z"/><path class="cls-5" d="M385.7,642.59a6.62,6.62,0,0,1-6-3.78s-19.2-41.6-19.27-41.73c-3.48-7.55,8.42-13.3,12-5.54l15.08,32.65,56.33-62.27c5.69-6.3,15.54,2.51,9.8,8.87l-63,69.68A6.42,6.42,0,0,1,385.7,642.59Z"/><rect class="cls-6" x="331.01" y="788.78" width="104.47" height="104.47" rx="8.2"/><rect class="cls-6" x="331.01" y="1013.46" width="104.47" height="104.47" rx="8.2"/><path d="M427.28,1120.41H339.2a10.69,10.69,0,0,1-10.67-10.68v-88.07A10.69,10.69,0,0,1,339.2,1011h88.08A10.69,10.69,0,0,1,438,1021.66v88.07A10.69,10.69,0,0,1,427.28,1120.41ZM339.2,1015.94a5.73,5.73,0,0,0-5.72,5.72v88.07a5.73,5.73,0,0,0,5.72,5.73h88.08a5.73,5.73,0,0,0,5.72-5.73v-88.07a5.73,5.73,0,0,0-5.72-5.72Z"/><path class="cls-5" d="M385.7,1093.17a6.6,6.6,0,0,1-6-3.79s-19.19-41.58-19.27-41.74c-3.56-7.72,8.41-13.29,12-5.54l15.08,32.66,56.33-62.27c5.67-6.27,15.53,2.52,9.8,8.87l-63,69.68A6.45,6.45,0,0,1,385.7,1093.17Z"/><path class="cls-7" d="M924.91,302.17v0a15.74,15.74,0,0,1-1.09,5.65c-1.38,3.67-4.26,6.41-8.81,8.13l-5.52,1.88-16.85,5.72-1.29.46-1.58.53-.4,5.81,2,4.3,1.29,2.77,12.59,27.25c10.9,26.56,2.28,59.5-15.26,70,0,0-.07.06-.1.06a.84.84,0,0,1-.27.13s0,0-.07,0a15.62,15.62,0,0,1-2.17,1.15l-.6,17.64H766.32l-.59-19.36c-17.15-10.93-25.51-43.43-14.67-69.7l16-34.62-33.5-5.51a17.88,17.88,0,0,1-16.38-25l9-20.61v0L727.9,275l34.66-68.78v-.06s5-8.69,14.89-10.28l15.83-2.51c0,4.73,13,19.59,34.29,19.06a42.32,42.32,0,0,0,21.27-5.94,28.33,28.33,0,0,0,3.07-2.08,33.22,33.22,0,0,0,7-6.94,12.68,12.68,0,0,0,1.85-4.1l12.36,2.51c9.15,1.59,13.11,5.39,17.37,11.53,0,0,1.23,2.51,3.27,7.1.2.47.4.93.63,1.42s.43,1,.66,1.46c7.11,15.75,20.68,47.43,28.48,75.28A33,33,0,0,1,924.91,302.17Z"/><path class="cls-5" d="M829.28,558.54l-1.78,42c-.73,10.37-9.58,18.2-16.78,16.12L794,611.73c-6.5-1.92-9.94-11.07-7.53-20.12l13.31-50.34.27,1.25,0,12.89c0,8.12,4.86,14.76,11.53,15.79l.26,0C819,572.32,827,566.74,829.28,558.54Z"/><path class="cls-5" d="M863.08,610.14l-17,5.65c-7.27,2.41-15.82-5-16.15-15.33l-.1-46.51.3-6.74.19,7.93c1.42,9.25,10.24,15.89,17.87,14.7l.27,0c6.67-1,11.53-7.67,11.53-15.79V542.66l.29-1.72,11.1,48.72C873.45,598.58,869.65,607.93,863.08,610.14Z"/><path class="cls-8" d="M875.76,453.76,860,542.66V554c0,8.12-4.86,14.77-11.53,15.79l-.27,0c-7.63,1.19-16.45-5.45-17.87-14.7l-.19-7.93-.43,9.32c-1.42,9.25-10.21,15.89-17.88,14.7l-.26,0c-6.67-1-11.53-7.67-11.53-15.79l0-12.89-18.8-88.76Z"/><path class="cls-7" d="M1069.44,1278.21s-7.4.5-14.54.79l-79.84,4.33c-10.87.47-18.1,1-18.1,1a48,48,0,0,1-.5-6.21l-38.71.07c-10.87-.1-18.14,0-18.14,0s-3.53-30.16,17.54-27c13.78,2.08,42.29-12.52,42.29-12.52a1.94,1.94,0,0,1,.49.07c2,.26,9.48,2,21.51,11.82,4.72,3.84,30.95,1.16,33.19-8.85a7.61,7.61,0,0,1,.9.07c2.41.33,9.84,2,21.7,10.67,4.92,3.6,21.44-1.36,23.19-11.43l-.13-.93a9,9,0,0,1,3.93,3.77C1072.61,1257.4,1069.44,1278.21,1069.44,1278.21Z"/><path class="cls-8" d="M1014.63,1241.74c-3,6.37-28.47,12.69-33.19,8.85-13.75-11.23-21.61-11.89-22-11.89l1.78-5.81,36.3-.63.5,6.15,14.66-1.23Z"/><path class="cls-7" d="M1053.18,934.4c-4.52,14.6-6.93,21-8.65,25l.2,39-72.21-93c1.81-1.36,3.73-2.84,5.61-4.36,10,.86,26.33.69,47.31-4.86,6.8-1.78,24.77-13.41,24.77-13.41l.1-.63c3.34,7.47,5.28,17.54,6.24,23.56C1057.94,914.61,1055.5,926.9,1053.18,934.4Z"/><polygon class="cls-7" points="1060.95 1233.12 998.02 1238.41 997.52 1232.26 957.75 1232.95 955.57 1095.4 954.94 1044.83 1054.6 1173.16 1060.95 1233.12"/><path class="cls-8" d="M824.86,877.32l-1.06.62c-9.38,7.27-26.3.67-31.91-8.45-2.08-3.7,5-11.89,12.35-18.73Z"/><path class="cls-8" d="M1060.42,1241.05c-1.75,10.07-18.27,15-23.19,11.43-14.6-10.67-22.46-10.74-22.6-10.74l1.19-4.82,43.51-3.67Z"/><path class="cls-5" d="M1075.78,815.74c.36,6.31-6,14.64-6,14.64l-12.66,11.26-6.9,41.16s-18,11.63-24.77,13.41c-21,5.55-37.33,5.72-47.31,4.86,6.28-5.09,12.13-10.67,12.56-14.11L971,861.59c-3.37-1-8.66-.36-11.73.7a60.76,60.76,0,0,1-11.2,2.51,21.62,21.62,0,0,1-4.06.13c.3-12.72,1.49-23.29,1.49-23.29L927.1,845.7l-29.74-37.59,22.93-6.87s24-96.46,37.43-105.67a28.6,28.6,0,0,1,20.11-4.5c-.13,2-.29,3.74-.46,5a2.22,2.22,0,0,0,1.79,2.48c2.54.49,4.09.36,11.49-.33,6.08-.56,26-8.2,30.82-12.59.7.5,1.49,1.09,2.38,1.75.36-1.09.56-1.68.56-1.68l18.37,12.55c7.83,4.23,9.45,8.62,9.71,14C1053.74,736.63,1075.38,808.34,1075.78,815.74Z"/><path class="cls-9" d="M826,721.07a16.54,16.54,0,0,0-15.59,2.54l-.27.23a16.5,16.5,0,0,0-4.82,20l-.33.27a16.53,16.53,0,0,0-20.61-.27l-.27.2a16.49,16.49,0,0,0-4.85,20.05l-.3.23a16.59,16.59,0,0,0-20.65-.26l-.26.2a16.43,16.43,0,0,0-6.28,14.56L731,697.42l21.31-16.59Z"/><polygon class="cls-5" points="730.2 698.03 710.7 649.26 753.12 680.24 730.2 698.03"/><path class="cls-5" d="M811.77,806.68l-30.6-39.41a16.55,16.55,0,0,1,2.92-23.22l.27-.2a16.54,16.54,0,0,1,23.21,2.92L1134,1167.21l-26.4,20.5L821.31,818.24Z"/><path class="cls-4" d="M821.31,818.23,1108,1187.44l-26.4,20.5L755.12,787.5A16.56,16.56,0,0,1,758,764.28l.27-.2A16.53,16.53,0,0,1,781.52,767l30.61,39.41Z"/><path class="cls-4" d="M1160.08,1147l-26.4,20.49L807.22,747.05a16.54,16.54,0,0,1,2.92-23.22l.26-.2a16.54,16.54,0,0,1,23.22,2.92Z"/><path class="cls-5" d="M295.07,1285.71h-128a73.29,73.29,0,0,1-1.15-9.28l-63.49.86s-5.19-23.36,3.3-39.31a9.88,9.88,0,0,1,4.16-4.59l-.06,1c2.74,11.3,21.83,15.66,27.12,11.2,13.64-11.43,22.13-13.48,24.28-13.81a2.45,2.45,0,0,1,.53-.06s5.81,2.87,13.74,6l-.46,5.21c2.6,11.37,21.63,15.93,27,11.57,13.78-11.2,22.3-13.22,24.45-13.51a2.33,2.33,0,0,1,.53-.07s32.4,16.52,48.06,14.14C299,1251.42,295.07,1285.71,295.07,1285.71Z"/><path class="cls-8" d="M161.78,1231.77c-.37,0-9.22.79-24.81,13.87-5.29,4.46-24.38.1-27.12-11.2l.63-8.65,50.37,3.14Z"/><path class="cls-10" d="M268.08,1072.81,243.8,1234.67l-71,1.42,18-165-7.7-30.09-5.49,31.78L162.34,1229l-58.77-3.66,7.83-154.24,4.36-157s23.45,34.88,124,11.1Z"/><path class="cls-8" d="M404.47,763.65c-.16.07-19.36,9.88-33,14.6l-24-23c1.42-3.7,4.23-8.78,6.24-10.64,1.82-1.68,10.17-9.84,11.13-15,.53-2.77,1.79-3.57,6-2.51,1.39.33,3.57,5.12,3.34,6.94a64.73,64.73,0,0,1-2.58,8.42c6.38-3.37,39.54-15,43.61-9.35C420.69,741.72,417.09,758.76,404.47,763.65Z"/><path class="cls-8" d="M268.61,647.27c.36,1.09-5,4.73-9.22,5.42-1.65,21.5-11.73,38.71-37.33,38.55a40.73,40.73,0,0,1-4.36-.23c.1,3,.2,6.11.37,9-15-1.35-32.44-2.87-46.68-1.82,1.42-2.24,6-15.52,8.09-20.94,2.28,1,12.19,3,14.73.79,3.94-3.4,8.92-8.55,9.52-14.7a11.25,11.25,0,0,0-2-7.4c-5.38-8-8.79-16.48-1.62-19.32,3.5-1.06,9.35-.26,12.36,3.57,2.71,3.47,8.39-6.64,7-13.25-2.11-9.88-2.11-9.88-7.73-17.9L229,613.41c8.29,1,18,3.21,26.19-.29,1,3.73,1.88,7.79,2.64,12.15a6.35,6.35,0,0,0,1.16,3.17Z"/><path class="cls-11" d="M225.36,651.63a10.54,10.54,0,1,0,10.53-10.54A10.53,10.53,0,0,0,225.36,651.63Z"/><path class="cls-12" d="M229,613.4c9.54,1.15,21,3.92,29.76-2.25a33.19,33.19,0,0,0,6.16-6.68C273,593.66,267.13,578,254,574.84c0,0-19.62-10.32-24.61-11-27.93-3.84-53.75,6.31-56.22,17.52-11.79,3-28.29,15.85-28.66,43-.55,39.83,26,49.32,35,52.84,3.11,1.22,12.2,3,14.72.8,4-3.41,8.93-8.56,9.53-14.7a11.52,11.52,0,0,0-2-7.42c-5.41-8-8.81-16.46-1.65-19.32,3.5-1,9.36-.26,12.36,3.57,2.73,3.47,8.41-6.65,7-13.24-2.1-9.86-2.1-9.86-7.73-17.91Z"/><path d="M242.8,627a1.64,1.64,0,0,1-1.39-.75,1.67,1.67,0,0,1,.49-2.29c.5-.32,5-3.13,8.56-2.24a1.65,1.65,0,1,1-.79,3.2c-1.87-.46-5,1.2-6,1.82A1.62,1.62,0,0,1,242.8,627Z"/><path class="cls-13" d="M347.32,755.16l-56.58,43.21L238.88,707a23.53,23.53,0,0,0-14.37-6.48c-18.83-1.62-43.15-4.26-60.32-1.58l-10,1.58c-8.12,2.41-14.76,7.73-20.78,15.69,0,0,0,0-.06,0-1.19,1.55-6.77,10.47-6.77,10.47h0L72.65,816.17a13.35,13.35,0,0,0,1.62,14.57l48.63,59.79-7.14,23.62s23.45,34.88,124,11.1c.53,0,.56-73.1,8.23-114h0l28,33.83A20.64,20.64,0,0,0,305,842.43l68-62.69ZM117.87,823,133,795.36l1.16,49.25Z"/><path d="M211.63,651.69a1.65,1.65,0,0,1-1.25-.57c-2.53-2.94-4.51-4.78-5.07-5a1.54,1.54,0,0,1-1.44-1.71,1.77,1.77,0,0,1,1.87-1.54c.68,0,1.94.1,7.14,6.12a1.65,1.65,0,0,1-.17,2.33A1.63,1.63,0,0,1,211.63,651.69Z"/><path d="M248.42,637.09a2.48,2.48,0,0,1-2.48-2.48v-3.83a2.48,2.48,0,0,1,5,0v3.83A2.48,2.48,0,0,1,248.42,637.09Z"/><path d="M770.77,599.31H478.93a2.48,2.48,0,1,1,0-4.95H770.77a2.48,2.48,0,0,1,0,4.95Z"/><path d="M770.77,624.51H478.93a2.48,2.48,0,0,1,0-5H770.77a2.48,2.48,0,0,1,0,5Z"/><path d="M770.77,901.64H478.93a2.48,2.48,0,1,1,0-5H770.77a2.48,2.48,0,0,1,0,5Z"/><path d="M770.77,926.83H478.93a2.48,2.48,0,1,1,0-5H770.77a2.48,2.48,0,0,1,0,5Z"/><path d="M770.77,1031.69H478.93a2.48,2.48,0,1,1,0-5H770.77a2.48,2.48,0,0,1,0,5Z"/><path d="M770.77,1056.88H478.93a2.48,2.48,0,1,1,0-5H770.77a2.48,2.48,0,0,1,0,5Z"/><path d="M770.77,1086.89H478.93a2.48,2.48,0,1,1,0-5H770.77a2.48,2.48,0,0,1,0,5Z"/><path d="M725.59,804.86H478.93a2.48,2.48,0,1,1,0-5H725.59a2.48,2.48,0,1,1,0,5Z"/><path class="cls-14" d="M457.43,289.08c0,22.45-19.7,40.64-44,40.64a45.62,45.62,0,0,1-32-12.73,71.55,71.55,0,0,1-51.19,21,72.28,72.28,0,0,1-41.95-13.14,48.55,48.55,0,0,1-25.15,6.91c-25.52,0-46.21-19.13-46.21-42.67s20.69-42.67,46.21-42.67c1.61,0,3.22.1,4.83.2,11.18-21.41,34.88-36.22,62.27-36.22,29.73,0,55.09,17.36,64.81,41.73a46.74,46.74,0,0,1,18.4-3.74C437.73,248.38,457.43,266.62,457.43,289.08Z"/><path class="cls-15" d="M618.49,233.81c0,19.12-16.77,34.61-37.49,34.61a38.84,38.84,0,0,1-27.26-10.84,62.3,62.3,0,0,1-79.32,6.68A41.29,41.29,0,0,1,453,270.15c-21.73,0-39.35-16.29-39.35-36.34s17.62-36.34,39.35-36.34c1.37,0,2.75.09,4.12.18,9.51-18.24,29.7-30.85,53-30.85,25.32,0,46.92,14.78,55.19,35.54A39.77,39.77,0,0,1,581,199.15C601.72,199.15,618.49,214.69,618.49,233.81Z"/><path d="M166.11,651.87a1.66,1.66,0,0,1-1.43-.81,44.53,44.53,0,0,1-4.41-10.37,1.65,1.65,0,1,1,3.17-.91,41.38,41.38,0,0,0,4.09,9.61,1.64,1.64,0,0,1-1.42,2.48Z"/><path d="M160.26,632.62a1.66,1.66,0,0,1-1.65-1.55,44.5,44.5,0,0,1,.93-12.43,45.57,45.57,0,0,1,18.22-27.3,1.66,1.66,0,0,1,2.3.41,1.64,1.64,0,0,1-.41,2.3,42.19,42.19,0,0,0-16.88,25.3,41.33,41.33,0,0,0-.86,11.51,1.65,1.65,0,0,1-1.55,1.75Z"/><path class="cls-4" d="M969.11,691.22a34.15,34.15,0,0,1,6.86-3.3,11.6,11.6,0,0,0-1,3.3Z"/><path class="cls-4" d="M1026.9,691.22h-9.34c1.78-.86,2.37-2.91,4.29-3.3h.36C1023.27,688,1025.09,689.5,1026.9,691.22Z"/><path class="cls-4" d="M1040.45,702.75h-84.9a40.32,40.32,0,0,1,2.58-3.31h20.48a3.62,3.62,0,0,0,1.68.6,40.52,40.52,0,0,0,14.64-.6h41.29C1037.74,700.6,1039.13,701.69,1040.45,702.75Z"/><path class="cls-4" d="M1051.25,714.31H949.11c.46-1.12,1-2.21,1.52-3.3h98.57A15.1,15.1,0,0,1,1051.25,714.31Z"/><path class="cls-4" d="M1053.17,725.87H945.08c.36-1.09.73-2.18,1.09-3.3H1052.5C1052.67,723.56,1052.9,724.68,1053.17,725.87Z"/><path class="cls-4" d="M1055.91,737.43H941.25c.36-1.09.76-2.18,1.12-3.3h112.71C1055.35,735.22,1055.61,736.31,1055.91,737.43Z"/><path class="cls-4" d="M1059,749H937.45c.33-1.09.69-2.18,1.09-3.3h119.51C1058.35,746.85,1058.65,747.94,1059,749Z"/><path class="cls-4" d="M1062,760.56H933.65c.36-1.09.73-2.18,1.09-3.31h126.42C1061.42,758.24,1061.72,759.37,1062,760.56Z"/><path class="cls-4" d="M1064.9,772.08H930.73c.36-1.12.69-2.21,1-3.3h132.27C1064.35,769.87,1064.64,771,1064.9,772.08Z"/><path class="cls-4" d="M1067.93,783.65H927.32c.33-1.13.66-2.22,1-3.31h138.83C1067.44,781.56,1067.7,782.69,1067.93,783.65Z"/><path class="cls-4" d="M1070.53,795.21H924.72c.1-1.16.2-2.28.3-3.3h144.92C1070.07,793,1070.3,794.12,1070.53,795.21Z"/><path class="cls-4" d="M1073.24,806.77H909.59c3.59-1.16,7.28-2.41,9.85-3.3h153.28C1073,804.56,1073.11,805.65,1073.24,806.77Z"/><path class="cls-4" d="M1072.72,815c0,1.12,0,2.21-.13,3.3H908.39c-.82-1.09-1.63-2.21-2.48-3.3Z"/><path class="cls-4" d="M1070.71,826.59c0,.1-.1.23-.14.36s-1.43,1.09-3.72,2.94H917.5c-.81-1.09-1.63-2.21-2.48-3.3Z"/><path class="cls-4" d="M1057,838.12a17.5,17.5,0,0,0-3,3.3H926.88l-2.47-3.3Z"/><path class="cls-4" d="M1050.29,861.24c-.13,1.06-.26,2.15-.36,3.31H975.7c-.2-.3-.4-.6-.56-.9a12.82,12.82,0,0,0-1.82-2.41Z"/><path class="cls-4" d="M1050.63,849.68c-.19.86-.42,2-.68,3.3H946.1c-.06-1.09-.1-2.21-.13-3.3Z"/><path class="cls-4" d="M1049.37,872.8c0,.76-.07,2-.2,3.31H984.52c-.89-1.06-1.82-2.18-2.71-3.31Z"/><path class="cls-4" d="M1044.28,884.36c-1.61,1.16-3.29,2.28-5,3.31H992.39a20.79,20.79,0,0,0-.93-3.31Z"/><path class="cls-4" d="M1021.31,895.93a89.65,89.65,0,0,1-10.44,3.3H985a9.35,9.35,0,0,0,1.44-.86,10.29,10.29,0,0,0,1.41-2.44Z"/><path class="cls-8" d="M990.69,887c-1,7.67-28.58,25.84-28.71,25.93-8.59,8.2-26.1,3.31-32.61-5.21-2.87-4.1,6.41-15.83,14.14-23.92,1.85-2,3.64-3.7,5.12-5.06a30.35,30.35,0,0,1,3.14-2.67s-1.42-.2-3.2-.5-3.67-.66-5-1c-.27-.07-.47-.14-.66-.2-1.82-.66-5.75-4.66-5.65-5.95.29-3.93,1.42-4.62,4.26-3.76a13,13,0,0,0,1.65.33,23.07,23.07,0,0,0,5-.1,60.76,60.76,0,0,0,11.2-2.51c3.07-1.06,8.36-1.72,11.73-.7Z"/><path d="M898,805.37l-1.09.33a15.49,15.49,0,0,0,2.74,4.36l1.62-.49Z"/><path d="M982.46,708c-4.81,0-9.71-1.17-12.37-5.19a1.66,1.66,0,0,1,2.76-1.83c4,6.08,17.12,3.22,21.83,1.6a1.65,1.65,0,0,1,1.07,3.13A46.32,46.32,0,0,1,982.46,708Z"/><path class="cls-12" d="M1050.38,612.29c-1.13,12.75-1.59,20.58-10.91,29.66-8.35,8.13-15.69,8.13-16.05,8.13h0c-5-3.57-1.85-12.59-1.85-12.59,4.62-5.28,11.23-15.36,2-18.4-3.9-1-7.44.86-10.77,4.4-3,3.2-8.62-2.12-6.91-8.16,1.85-6.44,2.58-12.75,6.12-18.3a37.65,37.65,0,0,0,5.45-3.31l-5.45,3.31c-9,4.49-20.12,6.37-29.57,7.33-6.24.63-13.25,1.75-19.92,1.42-.4,0-.79,0-1.19-.06-.72,0-1.42-.14-2.11-.2a26.64,26.64,0,0,1-10-3.24,28.45,28.45,0,0,1-4-2.81,121.09,121.09,0,0,0-3.93,16.45,66,66,0,0,0-.86,7.57,11.86,11.86,0,0,1-3.31-2.58c-3.33-3.73-4.75-9.15-5-14.4a39,39,0,0,1,4.42-19.92,21.48,21.48,0,0,1-1-6.77,12.28,12.28,0,0,1,1-5.12c3-6.54,9-13.31,18.66-13.41,3.24,0,7.2,2.47,7.2,2.47a106.78,106.78,0,0,1,19.46-5.25c7.33-1.35,15.69-.76,23.05.6,11,2,22.3,10.1,25,20.48C1043.14,582.33,1051.53,599.54,1050.38,612.29Z"/><path class="cls-8" d="M1012.45,663.23c.14.2.23.39.37.59,1,1.49,7.73,21.7,8.72,21.7-4.76,4.4-24.78,12.1-30.89,12.66-7.4.69-8.95.82-11.49.33a2.22,2.22,0,0,1-1.79-2.48c.5-3.6.86-11.6,1.06-18.66a29.53,29.53,0,0,1-4.1-.43c-23.35-4.1-38.15-31.35-33.06-61a121.09,121.09,0,0,1,3.93-16.45,28.45,28.45,0,0,0,4,2.81c9.75,5.68,22.56,3.14,33.2,2.08,9.45-1,20.61-2.84,29.57-7.33-3.54,5.55-4.27,11.86-6.12,18.3-1.71,6,3.87,11.36,6.91,8.16,3.33-3.54,6.87-5.35,10.77-4.4,9.28,3,2.67,13.12-2,18.4,0,0-3.17,9,1.85,12.59h0A65.09,65.09,0,0,1,1012.45,663.23Z"/><path class="cls-11" d="M955.27,639.43a9.76,9.76,0,0,1-9.75,9.75A7,7,0,0,1,944,649a59.76,59.76,0,0,1-3.6-17.88,9.45,9.45,0,0,1,5.13-1.48A9.74,9.74,0,0,1,955.27,639.43Z"/><path d="M967.19,644.28a18.17,18.17,0,0,1-6.89-1.68,4.85,4.85,0,0,1-2.77-5.58l4.79-20.19a2.48,2.48,0,1,1,4.82,1.14l-4.79,20.19c2.95,1.21,5.47,1.42,6.18.87a2.47,2.47,0,0,1,3.07,3.88A7,7,0,0,1,967.19,644.28Z"/><path d="M972.13,659.63a15.75,15.75,0,0,1-3.85-.49c-3.9-1-8.37-3.74-9-7.45a2.48,2.48,0,1,1,4.89-.78c.12.74,2.09,2.62,5.28,3.42,1.69.43,5.91,1,8.59-2.44a2.48,2.48,0,1,1,3.93,3A12.15,12.15,0,0,1,972.13,659.63Z"/><path d="M954,626a2.47,2.47,0,0,1-2.47-2.48v-3.54a2.48,2.48,0,1,1,5,0v3.54A2.48,2.48,0,0,1,954,626Z"/><path d="M983.53,627.41a2.48,2.48,0,0,1-2.47-2.48v-3.54a2.48,2.48,0,1,1,5,0v3.54A2.48,2.48,0,0,1,983.53,627.41Z"/><path class="cls-11" d="M999.28,642a9.75,9.75,0,1,1-9.75-9.75A9.75,9.75,0,0,1,999.28,642Z"/><path d="M1014.86,633.87a1.53,1.53,0,0,1-.47-.07,1.67,1.67,0,0,1-1.12-2c1-3.31,5.35-5.62,5.84-5.88a1.66,1.66,0,0,1,1.51,3c-1.39.71-3.75,2.38-4.18,3.86A1.65,1.65,0,0,1,1014.86,633.87Z"/><path d="M973,598.68a41.42,41.42,0,0,1-16.15-3.17c-2-.85-11-6.54-12.77-11.16a1.65,1.65,0,0,1,3.1-1.15c1.17,3.14,8.87,8.39,11,9.28a38,38,0,0,0,16,2.88c1.39,0,2.77-.14,4.15-.29a1.69,1.69,0,0,1,1.83,1.46,1.65,1.65,0,0,1-1.46,1.82c-1.47.17-3,.27-4.43.32Z"/><path d="M989.59,617.59a2.55,2.55,0,0,1-1.09-.25c-1.43-.71-5.74-2.49-8.41-2.39a2.48,2.48,0,1,1-.23-5c4.43-.25,10.18,2.57,10.83,2.89a2.48,2.48,0,0,1-1.1,4.7Z"/><path d="M950,616.89a2.48,2.48,0,0,1-.9-4.79c.92-.35,5.7-2.08,9-1.12a2.48,2.48,0,1,1-1.37,4.76c-1.29-.36-4.28.37-5.89,1A2.48,2.48,0,0,1,950,616.89Z"/><path class="cls-10" d="M747.59,265.17v3.31H734.48c.53-1.13,1-2.22,1.58-3.31Z"/><rect class="cls-10" x="706.15" y="447.43" width="0.96" height="3.3"/><polygon class="cls-10" points="872.39 349.41 872.39 366.42 869.09 366.42 869.09 349.38 872.39 349.41"/><path class="cls-10" d="M912.92,305.67l.07-16.94h7.2c-.33-1.13-.69-2.25-1.06-3.31H913l.07-16.94s-2.84-8.19-3.5-10v6.73h-17V248.23h13c-.46-1.13-1-2.22-1.39-3.3H892.64V228h4.13c-.49-1.09-1-2.18-1.45-3.3h-2.68v-6.21c-.43-1-.86-2.09-1.32-3.18a33.93,33.93,0,0,0-2-4v13.42h-17v-17h14.77a34.5,34.5,0,0,0-2.61-3.3H872.39v-6.25c-1-.16-2.11-.29-3.3-.46v6.71H848.84v20.25h-17V214.43c-1.09.14-2.21.2-3.3.27v10h-17V212.42c-1.12-.4-2.21-.79-3.3-1.29v13.55H791.49l0-17H802a33.37,33.37,0,0,1-4.13-3.3h-6.37v-8.82s-1.33.33-3.31.89v7.93H771.14v-3.21a14,14,0,0,0-2.57,1.26,4.87,4.87,0,0,0-.73.53v1.42h-1.42a16.89,16.89,0,0,0-2.08,3.3h3.5v17H755.72c-.56,1.12-1.13,2.21-1.65,3.3h13.77v17h-17V234.42c-1.12,2.25-2.21,4.49-3.3,6.74v3.77h-1.82c-.52,1.08-1,2.21-1.61,3.3h3.43v37.19H730.65v-9c-1.1,2.22-2.19,4.47-3.31,6.74v2.28h-1.12c-.53,1.09-1.06,2.18-1.62,3.31h2.74v16.94h-9.08a15.88,15.88,0,0,0,0,3.31h9.05v11.56a30.22,30.22,0,0,0,3.31,1V309h16.94v15l3.3.6V309h12.79v-3.31H750.89V288.73h12.79v-3.31H750.89V268.48h12.79v-3.31H750.89V248.23h17v4.89h3.3v-4.89h17.05v4.89h3.3v-4.89h16.85v4.89h3.3v-4.89h17v4.89h3.3v-4.89h17v4.89h3.3v-4.89h17v4.89h3.3v-4.89h17v4.89h2V324l1.29-.46V309h17v6.41l1.65-.6c.56-.23,1.12-.43,1.65-.69l0-5.12h7.37a7.49,7.49,0,0,0,1.65-3.31Zm-165.33,0H730.65V288.73h16.94Zm40.6-60.74H771.14V228h17.05Zm0-20.25H771.14v-17h17.08Zm20.15,20.25H791.49V228h16.85Zm20.25,0h-17V228h17Zm20.25,0h-17V228h17Zm20.25,0h-17V228h17Zm0-20.25h-17v-17h17Zm20.25,20.25h-17V228h17Zm20.25,60.74h-17V288.73h17Zm0-20.25h-17V268.48h17Z"/><rect class="cls-10" x="828.59" y="410.22" width="3.3" height="16.95"/><rect class="cls-10" x="808.34" y="410.22" width="3.3" height="16.95"/><path class="cls-10" d="M909.59,390v-3.3h-17V369.73h11.5c-.4-1.13-.8-2.22-1.23-3.31H892.64V349.47h2.78c-.5-1.08-1-2.21-1.49-3.3h-1.29v-8.72l-1.29-2.77v11.69H762.23c-.7,1.09-1,1.55-1.66,2.64l7.27,0v17.37H752.68l-1.09,3.31h16.25v16.94h-17V370.91c-.66,1.46-1.18,2.88-1.65,4.27a39.33,39.33,0,0,0-1.65,7.33V394.3l3.3,15.89v0h17v16.95h-7.27c1,1.16,2,2.28,3,3.3h4.26v20.25H883.79l.2-3.3h-11.6V430.47h17v4.46c.06,0,.13,0,.19,0s0,0,.07,0a.84.84,0,0,0,.27-.13s.06,0,.1-.06c.92-1.19,1.81-2.42,2.67-3.61v-.66h.46c.8-1.09,1.56-2.21,2.28-3.3h-2.74V410.22h11.73c.39-1.09.79-2.18,1.12-3.3l-12.85,0V390ZM767.84,406.49l-17-.06V390h17Zm43.8-57.31,17,.06v17.18h-17Zm0,20.55h17v16.94h-17Zm0,20.24h17v16.72l-17-.07Zm-20.25-40.86,17,.07v17.24h-17Zm0,20.62h17v16.94h-17Zm0,20.24h17v16.65l-17-.06ZM788,447.42H771.14V430.47H788Zm0-20.25H771.14V410.22H788Zm0-20.61-16.88-.07V390h16.92Zm0-19.89H771.14V369.73h16.92Zm0-20.25H771.14V349.05l17,.06Zm20.28,81H791.29l0-16.95h17Zm3.3,0V430.47h17v16.95Zm37.2,0h-17V430.47h17Zm0-20.25H791.33V410.22h57.51Zm0-20.41-17-.07V390h17Zm0-20.09h-17V369.73h17Zm0-20.25h-17V349.24l17,.07Zm20.25,81h-17V430.47h17Zm0-20.25h-17V410.22h17Zm0-20.38-17,0V390h17Zm0-20.12h-17V369.73h17Zm20.25,40.5h-17V410.22h17Zm0-20.32-17,0V390h17Zm0-20.18h-17V369.73h17Zm0-20.25h-37.2V349.34l17,0,3.3,0,17,0Z"/><path d="M777,377.67a2.48,2.48,0,0,1-1.83-4.14c11.38-12.52,32.41-14.11,45-3.42a2.48,2.48,0,1,1-3.2,3.78c-11.79-10-29.57-6.47-38.15,3A2.46,2.46,0,0,1,777,377.67Z"/><path d="M874.87,370.25a2.49,2.49,0,0,1-2.12,1.19,2.39,2.39,0,0,1-1.25-.33c-.59-.36-1.22-.66-1.85-1a25,25,0,0,0-12.26-2.54h-.06c-5.91.36-12.22,2.81-19.19,7.56a2.38,2.38,0,0,1-1.39.43,2.52,2.52,0,0,1-2-1.09,2.48,2.48,0,0,1,.66-3.43c7.57-5.16,14.57-7.93,21.28-8.36a2.63,2.63,0,0,1,.49-.07,29.88,29.88,0,0,1,14.7,3c.73.36,1.45.76,2.18,1.19A2.5,2.5,0,0,1,874.87,370.25Z"/><path class="cls-8" d="M860.76,193.39a12.68,12.68,0,0,1-1.85,4.1c-2.74,3.86-12.42,14.5-31.34,15-21.31.53-34.29-14.33-34.29-19.06l1.35-.49c0-.5,15.36-3.7,15.36-3.7l2.18-13.35c-10.93-4.56-19.39-15.23-23.91-28.37v0a55.49,55.49,0,0,1-1.62-5.45,65.88,65.88,0,0,1-1.95-13.67l7.53-28.38,59,1.72c-3.27,3.93-5.78,12.55-2.77,18.86a21.7,21.7,0,0,1,1.68,3.67c1.46,5.48-4.72,10.47-4.49,16.15.1,2.94,1.92,5.52,3.34,8.13s2.44,5.84,1,8.42c-.46.83-1.09,1.49-1.52,2.28a7.9,7.9,0,0,0-.82,3.5,19,19,0,0,0,.66,6,51.59,51.59,0,0,1-6.31,4.46l2.08,16.12S856.53,192.67,860.76,193.39Z"/><path d="M834.66,128.19a2.47,2.47,0,0,1-2.47-2.47v-3.54a2.48,2.48,0,1,1,4.95,0v3.54A2.47,2.47,0,0,1,834.66,128.19Z"/><path d="M801.46,127.91a2.48,2.48,0,0,1-2.48-2.48v-3a2.48,2.48,0,0,1,5,0v3A2.48,2.48,0,0,1,801.46,127.91Z"/><path d="M818.67,146a25,25,0,0,1-4.47-.5,4.93,4.93,0,0,1-3.89-6.14l3.85-24.72a2.48,2.48,0,1,1,4.9.76l-3.87,24.88-.09.39c1.62.25,5,.87,6.3-.37a2.48,2.48,0,0,1,3.43,3.57A8.59,8.59,0,0,1,818.67,146Z"/><path d="M834.8,153c-2.28,7-6.81,10.64-13.18,10.64a22.3,22.3,0,0,1-5.65-.79c-3.09-.81-1.8-5.64,1.29-4.79,4.89,1.29,8.22.69,10.47-2.05a32,32,0,0,1-7.27.79,30.35,30.35,0,0,1-7.1-.79,19.33,19.33,0,0,1-5.88-2.48c-2.65-1.73.09-5.89,2.78-4.13a13.89,13.89,0,0,0,4.29,1.79c4.62,1.15,11.46.72,14.93-.93,1-.45,1.74-1.38,2.88-1.29C834.5,149.05,835.4,151.15,834.8,153Z"/><path class="cls-11" d="M805.77,142.12a9.58,9.58,0,0,1-17.51,5.36l0,0c-.63-1.78-1.15-3.58-1.62-5.44a9.58,9.58,0,0,1,19.15.11Z"/><path class="cls-11" d="M853.81,142.12a9.58,9.58,0,1,1-9.57-9.58A9.57,9.57,0,0,1,853.81,142.12Z"/><path d="M797.62,115a2.48,2.48,0,0,1-.83-4.81,22.82,22.82,0,0,1,8.62-1.29,2.48,2.48,0,0,1,2.37,2.59,2.44,2.44,0,0,1-2.58,2.36,18,18,0,0,0-6.75,1A2.63,2.63,0,0,1,797.62,115Z"/><path d="M840.61,114.37a2.47,2.47,0,0,1-.83-.15,18.13,18.13,0,0,0-6.74-1,2.45,2.45,0,0,1-2.59-2.36,2.48,2.48,0,0,1,2.37-2.59,23,23,0,0,1,8.62,1.28,2.48,2.48,0,0,1-.83,4.82Z"/><path class="cls-5" d="M899.15,177.27,852.9,177a19.7,19.7,0,0,1-5.28-14.34,7.9,7.9,0,0,1,.82-3.5c.43-.79,1.06-1.45,1.52-2.28,1.42-2.58.4-5.81-1-8.42s-3.24-5.19-3.34-8.13c-.23-5.68,5.95-10.67,4.49-16.15a21.7,21.7,0,0,0-1.68-3.67c-3-6.31-.5-14.93,2.77-18.86l-59-1.72s-7.6,29.5-7.47,29.43A62.89,62.89,0,0,0,786.64,142a55.49,55.49,0,0,0,1.62,5.45v0a53.54,53.54,0,0,0,12.12,20.25,16.89,16.89,0,0,1-3.07.85,69.36,69.36,0,0,1-13.35.86H773.82l0,.1H765.4A17.59,17.59,0,0,1,768.86,155c1.19-1.46,2.65-2.78,3.31-4.56,1.32-3.77-1.52-7.83-1.22-11.79.42-5.26,6-8.82,6.9-14,1-6-4.53-11.2-4.89-17.28a13.85,13.85,0,0,1,2.18-7.89l-6.31-.2c0-11,3.57-22.7,11.83-30.33,7.93-7.3,19.45-9.45,19.45-9.45,5.59-9.44,41-17,65.44,2.09,44.83,35,6.45,45.58,22.83,59.92,11.82,10.37.13,19.82,2.51,28.08.69,2.41,2.61,4.29,3.77,6.54C898,162.67,902.88,170.86,899.15,177.27Z"/><path d="M807.75,68.42a1.65,1.65,0,0,1-.73-3.13,30.72,30.72,0,0,1,10.72-3.16,1.65,1.65,0,1,1,.29,3.29,27.46,27.46,0,0,0-9.56,2.84A1.68,1.68,0,0,1,807.75,68.42Z"/><path d="M871.63,94.8a1.65,1.65,0,0,1-1.58-1.19c-1.55-5.41-4-9.18-7.39-11.55a1.65,1.65,0,0,1-.41-2.3,1.63,1.63,0,0,1,2.29-.41c4.07,2.81,6.91,7.18,8.68,13.34a1.65,1.65,0,0,1-1.13,2A1.76,1.76,0,0,1,871.63,94.8Z"/><path d="M864.52,164.9h-.11a1.66,1.66,0,0,1-1.54-1.76,35.56,35.56,0,0,1,.69-4.58,20.06,20.06,0,0,0,.59-6.21,20.21,20.21,0,0,0-2.46-6.5,37.37,37.37,0,0,1-2.08-4.58,19.14,19.14,0,0,1,2.46-17.16,1.65,1.65,0,1,1,2.69,1.92,15.75,15.75,0,0,0-2,14.15,34,34,0,0,0,1.9,4.17,22.68,22.68,0,0,1,2.8,7.6,23,23,0,0,1-.63,7.25,33.78,33.78,0,0,0-.64,4.15A1.64,1.64,0,0,1,864.52,164.9Z"/><path class="cls-16" d="M252,1001.69v169.49a131.29,131.29,0,0,1-2.77,22.25c-.63,2.68-1.39,5.33-2.18,8V976.86Z"/><path class="cls-16" d="M233.41,929v305.88h-5V930.64Q231,929.85,233.41,929Z"/><path class="cls-16" d="M214.81,932.11v302.67l-5,0V933.14C211.51,932.84,213.16,932.51,214.81,932.11Z"/><path class="cls-16" d="M196.24,935.14v299.57l-5,0V935.58C192.94,935.48,194.59,935.34,196.24,935.14Z"/><path class="cls-16" d="M177.68,936v123c-1.39,10.2-3.3,24.26-5,37.4V935.84C174.38,935.94,176,936,177.68,936Z"/><path class="cls-16" d="M174.11,1234.61q1.94-12.64,3.57-25.2v25.2Z"/><path class="cls-16" d="M159.08,934.67v291.71c-1.42-.29-3.14-.66-5-1.08V933.94C155.75,934.21,157.43,934.44,159.08,934.67Z"/><path class="cls-16" d="M140.52,931.1v294.26a34.45,34.45,0,0,1-5-.55v-295C137.21,930.27,138.87,930.7,140.52,931.1Z"/><path class="cls-16" d="M122,922v302.17c-1.65-.16-3.3-.33-5-.46V919.94C118.65,920.68,120.3,921.35,122,922Z"/><path class="cls-16" d="M265.58,1079v-6.46C265.61,1074.26,265.61,1076.36,265.58,1079Z"/><path d="M172.93,836.19a1.65,1.65,0,0,1-1.29-.63c-1.62-2-3.13-7.2-5.22-14.35-1.67-5.71-3.56-12.18-5.91-18.42a1.65,1.65,0,1,1,3.09-1.17c2.4,6.36,4.31,12.9,6,18.67,1.76,6,3.42,11.68,4.63,13.22a1.65,1.65,0,0,1-.26,2.32A1.68,1.68,0,0,1,172.93,836.19Z"/><path d="M158.58,795.71a1.63,1.63,0,0,1-1.48-.93,42.51,42.51,0,0,0-6.06-9.51,1.65,1.65,0,0,1,2.47-2.2,45,45,0,0,1,6.55,10.27,1.64,1.64,0,0,1-.76,2.2A1.55,1.55,0,0,1,158.58,795.71Z"/><path class="cls-8" d="M227,1241c-.37,0-9.25.76-25,13.58-5.35,4.36-24.38-.2-27-11.57l.59-6.93,49.55-1Z"/><rect class="cls-2" x="764.97" y="253.11" width="127.67" height="93.25"/><path d="M1081.26,1210.36a2.38,2.38,0,0,0,1.85-.46l78.49-61a2.48,2.48,0,0,0,.43-3.5L1047.2,997.56s.53-38.62.37-38.95c5.18-11.1,8.49-27.28,8.88-31.54a167.77,167.77,0,0,0,1-24,57.2,57.2,0,0,0-4.66-20.08,28.72,28.72,0,0,0,.92-3.77l3.11-34.35,11.53-9.52c9.11-7.76,12.42-21.1,8.68-34.81l-22.29-90.71a10.48,10.48,0,0,0-4-6s-27.52-20.15-27.55-20.19c-.86-1.61-7.11-18.69-7.63-19.91a64.14,64.14,0,0,0,9.25-11.27c2.83-.36,9.34-1.88,16.41-8.75,8.92-8.69,12-22.43,11.76-34.59-.23-11.1-5.91-23.35-15.62-29.23a21.6,21.6,0,0,0-5.39-2.38c-3.76-11.23-16-18.93-26.56-20.88-6.21-1.12-15.39-2.18-23.91-.59A120.36,120.36,0,0,0,962.64,561a16.92,16.92,0,0,0-7.43-2.21c-12.69.1-18.83,10.4-20.88,14.86a14.46,14.46,0,0,0-1.26,6.11,23.27,23.27,0,0,0,.9,6.68c-.23.56-1.92,4.49-2.12,5.18a63,63,0,0,0-2.44,10.54c-.86,8,1.88,19.46,8,24.78a28.27,28.27,0,0,1,.5,4.32,61.16,61.16,0,0,0,3.73,18.6c5.88,16,17.94,27,32.24,29.47a17.6,17.6,0,0,0,2,.29c0,1.52-.1,3-.16,4.5-13.25,3-22.37,8.62-27.75,21-.13.33-9.41,23-16.48,46.28-1,3.27-3,10-5.13,17.61V425.35a2.51,2.51,0,0,0-2.47-2.47l-19.59,0c9.58-16.58,11-40.34,3.2-59.23l-13.64-29.5v-8.39l22.07-7.5c7.17-2.67,14.76-9.45,10-26.26-4.93-17.54-11.37-34.62-18.24-51.47-4.46-10.9-9.12-21.73-14.1-32.4-3.9-8.42-11.2-12.72-20-14.67,0,0-24.51-5.48-27.32-6.24l-1.68-12.88c.86-.57,1.68-1.13,2.48-1.72a21,21,0,0,0,4,6,2.5,2.5,0,0,0,1.79.8l46.28.26a2.42,2.42,0,0,0,2.15-1.26c4.09-7.06-.17-15.32-3.64-22-.79-1.52-4.06-6.58-4.39-7.67-.66-2.31.2-5,1.19-8.09,1.88-6,4.26-13.51-4.46-21.14-5-4.36-3.8-7.83-1.82-13.61,3.4-10,8.1-23.65-21.11-46.41-10.24-8-23.65-12.36-37.79-12.36-13.64,0-26.19,4.16-30.65,10C795.49,58,786,60.63,779,67.11c-8,7.4-12.61,19.12-12.61,32.14,0,2.71,3,2.47,4.95,2.54-1.78,3.24-.17,8.46.2,9.61,1.65,5.06,4.72,9.62,2.77,15.17-1.49,4.19-5.65,7.4-5.88,11.82-.16,3.5,2.25,6.91,1.59,10.34-.46,2.61-2.55,4.53-4.1,6.64a18.18,18.18,0,0,0-3.07,13.81c.36,1.95,1.25,2.77,3.2,2.81s3.74.1,5.59.13c4.85.1,6.34-5.25.89-5.19-1.79,0-3.67.6-5.29-.13.7-7.5,8.86-13.44,7.6-20.88-.33-2.14-1.49-4.16-1.49-6.31,0-4.13,3.94-7,5.72-10.73,2.18-4.53.89-9.68-.89-14.11-.86-2.14-2-4-2.48-6.31-.13-.76-.46-6.54,1-6.5l10.47.29a62.25,62.25,0,0,0-2.9,40.37c3.56,14.07,11.72,28.18,25.2,34.72l-1.62,9.78c-9.78,2-26.53,5.68-30.75,6.34-11,1.75-16.42,11.1-16.65,11.49a.43.43,0,0,1-.07.17l-45.42,93.42a20.29,20.29,0,0,0,1.65,19.29c3.74,5.71,10,8.62,16.82,9.22,7,.59,27.81,4.59,27.81,4.59v5.22l-12.45,26.92c-7.73,18.83-6.31,42.71,3.37,59.26l-43.84,0a8.38,8.38,0,0,0-7.89-5.64H635.05a16.89,16.89,0,0,1-16.88-16.88V386.8c0-33.92-43.81-50.27-66.4-25.3A37.86,37.86,0,0,0,542,386.8v13.75a16.89,16.89,0,0,1-16.88,16.88H459.77a8.39,8.39,0,0,0-8.36,8.35v14.41a30.55,30.55,0,0,0,1.13,8.22H291.93a2.45,2.45,0,0,0-2.48,2.48V791.1l-34-59.92V674.09a53,53,0,0,0,6-19.32c3.8-1.09,7.66-3.6,8.95-5.35a3.11,3.11,0,0,0,.56-2.91c0-.13-9.94-19.52-10.07-19.62-.83-.63-2.35-12.68-2.35-12.68a16.36,16.36,0,0,0,1.62-1c8.42-5.78,13.21-17.24,9.68-27a21.64,21.64,0,0,0-14.37-13.48V427.83H437.08a2.48,2.48,0,0,0,0-4.95H253a2.5,2.5,0,0,0-2.48,2.47V570.27c-7.46-3.76-14.83-8.26-23.28-9.18a90.9,90.9,0,0,0-25,.72,64.42,64.42,0,0,0-20.39,6.74,25.31,25.31,0,0,0-7,5.22c-1,1.19-2.14,5.09-3.66,5.55-11.27,3.5-28.77,16.35-29.14,45-.36,24.61,11.2,42.78,34.32,54.15.53.49-6.07,17.3-6.5,17.34-2.09.16-4.07.39-6,.69l-10.3,1.65c-8.13,2.42-15.07,7.54-21.67,16.06-1.39,1.78-6.31,9.35-7.43,11.3l-54,89.55a15.72,15.72,0,0,0,1.92,17.24l47.79,58.84-6.73,22.33c-.1.19-4.5,157.53-4.5,157.53l-7.83,154.24a2.44,2.44,0,0,0,2.32,2.57l4.42.27-.3,3.89a13.58,13.58,0,0,0-4,4.83c-7.57,14.3-5.25,33.41-4.2,39.12H52.67c-1.39,0-2.08,1.38-2.08,2.76a2.47,2.47,0,0,0,2.47,2.48H163.89c.33,2.91.73,4.79.79,5.06a2.52,2.52,0,0,0,2.38,2H295a2.36,2.36,0,0,0,2.51-2.22,36.61,36.61,0,0,0,.27-4.82H954.12a36,36,0,0,0,.39,3.6,2.49,2.49,0,0,0,2.45,2s102.53-5.55,104.58-5.65h79.74a2.47,2.47,0,0,0,2.48-2.48,3.07,3.07,0,0,0-2.87-2.76h-69.11c.6-6.07,1.69-21.81-5.45-33.31a12.52,12.52,0,0,0-3.76-4.06c-.17-1.06-.27-2.15-.47-3.21a2.6,2.6,0,0,0,1.29-2.47l-5.45-51.34,21.7,28A3,3,0,0,0,1081.26,1210.36Zm75.35-63.82L1134.12,1164,943.74,918.84a17.76,17.76,0,0,0,6.38,1.25c5.38,0,11.86-2.54,21.93-11.23ZM801.44,739.21a19.08,19.08,0,0,0-4.56-1.16,19.5,19.5,0,0,0-21.51,16.71,18.4,18.4,0,0,0,0,4.69c-.2-1.52-8.39-1.28-9.48-1.15a19.31,19.31,0,0,0-14.33,9.91l-17.78-69.8,18.77-14.6,63.16,34.45a19.35,19.35,0,0,0-6.84,3.4l-.23.2a19.08,19.08,0,0,0-7.24,12.65A16.81,16.81,0,0,0,801.44,739.21Zm-70.17-45.16-15.06-37.69L749,680.31Zm75.05,41.09a14.64,14.64,0,0,1,14.21-12.52,13.94,13.94,0,0,1,11.13,5.45l104.82,135a6.7,6.7,0,0,0-.7,8,15.54,15.54,0,0,0,5.65,5.22,17.33,17.33,0,0,0,4.82,1.36c-5.18,4.92-13.84,13.87-17.8,21.5L809.17,745.51a12.17,12.17,0,0,1-1.36-2.18A13.77,13.77,0,0,1,806.32,735.14Zm53.06-161.47a43.91,43.91,0,0,1-4.66,2.65,22.66,22.66,0,0,1-11.63,1.78c-5-.5-10.5-6-10.5-6v-7.92c3.56,4.72,7.76,8.22,13.87,8.22,7.83,0,13.78-6.08,15.46-13.44,0,0,1.45,6.34,1.45,6.41C863.37,568,862.32,572.06,859.38,573.67Zm6.11,1L869,590.22c1.72,7.57-1.42,15.79-6.74,17.58l-16.91,5.65c-5.28,1.75-12.62-4-12.92-13l.14-21.8a17.9,17.9,0,0,0,9.87,4.36,28.91,28.91,0,0,0,3.34.2,26.17,26.17,0,0,0,11-2.38c1.75-.79,3.3-2,5-2.81A10.9,10.9,0,0,0,865.49,574.66Zm-7.93-32V554c0,6.24-3.77,13.21-10.67,13.48s-14-5.85-15.06-12.42V456.24h41S857.56,542.52,857.56,542.66Zm20.28-86.42h5v48.29H869.29Zm52.82,391.21,11.76-2.6c.2,6.44.43,12.38.63,17.54Zm1.09,55.93c2.38-5.62,11.76-16.81,18.34-22.79,1.15-1,2.21-1.89,3.13-2.55,2.81-2-.29-4.36-2.41-4.62a59.86,59.86,0,0,1-7.1-1.49c-.92-.33-3.14-1.62-3.8-3.33-.3-.9-.23-2,.86-1.66a16.34,16.34,0,0,0,5.42.5,58.52,58.52,0,0,0,13.91-2.81,22.69,22.69,0,0,1,8.42-1l19.42,23.85c-.86,2-27.65,23.59-27.68,23.62-2.71,2.61-6.9,3.8-11.82,3.44a28.66,28.66,0,0,1-10.38-3,19.89,19.89,0,0,1-6.67-5.25C931,905.73,931.19,904.73,931.75,903.38Zm71.19-4.16c-3.6.39-7.17.63-10.74.73-2.71.06-5.61.23-8.22-.63a46.28,46.28,0,0,0,7.27-7.8l2,2.51a2.5,2.5,0,0,0,3.51.37l54.8-45.19s-2.88,29.93-2.91,30.09c-.1,1.58-.92,2.38-2.08,3.37C1034.39,892.91,1018.66,897.57,1002.94,899.22Zm1.22,4.82a39.84,39.84,0,0,0,11.23,15.36c1.82,1.36,5.06,3.6,7.21,3.77l-1.89,40.27L976,905.89c1.32-1,2.61-2,3.8-3,0,0,4.29,2.81,14.8,1.95C995.47,904.73,1004.1,903.84,1004.16,904Zm47.37,22.56c-.33,3.54-3.47,19.26-8.46,29.9-.32.69-.72,34.82-.72,34.82l-18.53-23.85,2-43.31a92.88,92.88,0,0,0,9.81.56c2.41-.63,2.28-3.6.19-3.37-6,.66-13.7-.49-18.63-4.52a33.45,33.45,0,0,1-9.68-13.22c17-2.38,30.86-7.93,41.53-16.55a51.75,51.75,0,0,1,3.4,16.22A162,162,0,0,1,1051.53,926.6Zm-33.26-241.7c-6.15,4-22.66,9.81-27.85,10.83a30.71,30.71,0,0,1-10.57.4c.46-3.4.79-10,1-16.29,10.84-.23,21.67-5,30.79-12.55C1012.22,668.91,1017.31,682.75,1018.27,684.9ZM938.82,575.72c1.65-3.57,6.58-11.86,16.45-12,2.05,0,4.89,1.52,5.85,2.12a2.54,2.54,0,0,0,2.28.2,102.2,102.2,0,0,1,19-5.16c7.76-1.42,16.32-.46,22.13.63,9.48,1.72,20.45,8.69,23.09,18.66a2.47,2.47,0,0,0,1.92,1.79c13.25,2.77,19.42,19,18.33,31.12s-1.68,18.89-10.07,27c-6.18,6-11.53,7.17-13.51,7.4-2.15-2.38-.93-7.37-.5-8.82,3.27-3.86,8.13-10.7,6.61-16.25-.53-1.89-2-4.43-6.28-5.82a10.26,10.26,0,0,0-8,1.09c-1.19.66-5,4.56-6,4a5.18,5.18,0,0,1-1.82-5.78c.5-1.72,3.34-13.48,5.49-17a43.56,43.56,0,0,0,5.15-3.2c2.58-1.88-.33-5.91-2.94-4-9.51,7-22.33,9-33.76,10.14-10.21,1-22.3,3.77-31.71-1.75-7.53-4.42-12.52-12.55-12.39-20.28A10.61,10.61,0,0,1,938.82,575.72Zm0,39.77c-.27,1.59-.5,3.18-.63,4.76-3-4.79-4.46-12.19-3.87-17.54a55,55,0,0,1,2.25-9.68s0-.06,0-.13a29.63,29.63,0,0,0,5.82,7.37A114.75,114.75,0,0,0,938.86,615.49Zm35.9,59c-12.75-2.24-23.12-11.82-28.44-26.33A55.7,55.7,0,0,1,942.89,631a63,63,0,0,1,.85-14.67,130,130,0,0,1,2.84-12.78,14.79,14.79,0,0,0,1.33.82c9.11,5.36,20.35,4.07,30.25,2.91l4.46-.49c9.62-1,17.64-2.58,24.25-5-.89,2.61-3,11.13-3.43,12.79-1.46,5.08,1,9.71,4.12,11.46a5.47,5.47,0,0,0,6.94-.93c1.62-1.72,3.8-3.57,6.28-3.83,1.75-.2,4.26.53,4.79,2.45,1.48,5.45-4.63,9-6.48,13.18a16.41,16.41,0,0,0-1,5.58,11.08,11.08,0,0,0,.73,5,21.5,21.5,0,0,1,1.32,2.8c-9.74,14.41-25.24,24.58-40.24,24.58A29,29,0,0,1,974.76,674.49ZM927.23,811.35a42.66,42.66,0,0,0-4.43-10.08c2.58-11.09,24.45-95,36.4-103.72,2.38-1.69,4.23-3.67,7-5,.86-.43,9.25-3.17,9.25-3.24-.13,2.64-.33,4.92-.53,6.41-.59,4.39,3.84,5.61,7.27,5.58,15.86-.16,32.37-7.76,39.41-12.65l2.94,2.15c-4.36,2.61-13.15,6.21-19.22,8.69l-4.27,1.75a1.71,1.71,0,0,0-.89,2.18,1.67,1.67,0,0,0,1.52,1,2.51,2.51,0,0,0,.66-.1c1.22-.53,2.68-1.13,4.23-1.75,7.1-2.91,16.68-6.84,20.84-9.65l20.42,15a5.35,5.35,0,0,1,2.11,3.17l22.3,90.77c3.27,11.89.56,23.29-7.07,29.77L995.54,889l-22-27,58.57-50.84c4,1.06,14.2,5.28,14.66,5.28a2.52,2.52,0,0,0,1.39-4.56c-3.2-2.11-10.54-4.39-14.67-5.48l-16-64.45a2.49,2.49,0,0,0-4.82,1.23l16,64.41-59,51.24a26.61,26.61,0,0,0-11.1,1.15,55.27,55.27,0,0,1-10.5,2.38c-1.29-31.32-3.24-90.61,9.24-125,1.1-3-3.56-4.69-4.65-1.71-10.18,28-11,71.58-10.31,104.18l-15,3.31-26.06-33.56,17.57-5.29a35.79,35.79,0,0,1,3.67,8.42C923.36,815.81,928.15,814.42,927.23,811.35Zm-5.85-383.52V786.94c-1.39,5.15-2.51,9.61-3.07,12.32L898,805.37l-10.54-13.58L887.75,456a4.71,4.71,0,0,0,1.49-2.28L889.07,438A33,33,0,0,0,901,427.86h0ZM784.52,97.23c2-8.75,8.82-18.56,17.51-25a1.68,1.68,0,0,0,.33-2.32,1.65,1.65,0,0,0-2.31-.33c-9.65,7.17-16.91,17.81-18.93,27.55l-9.75-.29c.5-10.64,4.43-20.06,11-26.1,7.27-6.71,18.14-8.82,18.24-8.85a2.52,2.52,0,0,0,1.68-1.16c2.41-4.1,13.45-8.52,27-8.52,13.05,0,25.37,4,34.75,11.29,26.4,20.58,22.57,31.85,19.46,40.9-2.08,6.11-4.23,12.42,3.24,19,6.31,5.48,4.76,10.34,3,15.92-1.12,3.54-2.28,7.2-1.19,10.94,2.28,7.76,12.16,15.59,9.09,24.57l-8,0c.23-4.82-2.05-9.25-4.26-13.51-1.69-3.24-3.47-6.61-4-10a31.29,31.29,0,0,1,.53-9.18c.53-3.44,1.06-7,.46-10.54-.76-4.29-3.1-8-4.65-12.06-1.09-2.84-1.52-7.13-2-11.69-.23-2.51-.49-5.12-.89-7.73a1.65,1.65,0,0,0-3.27.5c.36,2.54.63,5.12.89,7.56.5,4.79,1,9.32,2.18,12.55,1.52,3.77,3.8,7.37,4.49,11.43.53,3,0,6.18-.46,9.48a35.28,35.28,0,0,0-.53,10.18c.6,4,2.48,7.56,4.3,11.06,2.11,4.07,4.16,7.9,3.9,11.93l-32.24-.2a17.54,17.54,0,0,1-3.94-11.73c.1-1.91,1.06-3,2-4.69,1.12-2.05,1.85-5.55-1-10.83-2.58-4.79-3.54-8.23-.93-13.35,1.56-3,3.31-6.5,2.28-10.4s-3.2-6.44-2.9-10.71a17.33,17.33,0,0,1,3.53-9.58,2.49,2.49,0,0,0-1.82-4.06Zm6.08,49.45a64.29,64.29,0,0,1-3.5-20,54.69,54.69,0,0,1,5.42-24.31l54.3,1.58c-2.41,5.16-3.23,12.16-.62,17.58,1.88,3.93,1.65,6-.43,10.11-1.29,2.57-2.78,5.48-2.65,8.75.1,3,1.59,5.58,2.88,7.83,2.34,4.06,2.38,5.78.26,9.71a10.48,10.48,0,0,0-1.12,4.56,20.12,20.12,0,0,0,.36,5.09c.17.82-6.18,4.09-7.1,4.55a35.46,35.46,0,0,1-9.45,3.18A28.09,28.09,0,0,1,811.84,173C801.4,167.89,794.4,157.32,790.6,146.68Zm19.89,44.93a2.48,2.48,0,0,0,2-2l1.71-10.34c0,.86,8.23,1.46,9.09,1.49a29.81,29.81,0,0,0,7.66-.59c.93-.2,9.09-2.25,9.09-3.18l1.62,12.52a2.48,2.48,0,0,0,1.78,2.09c.2.06,11.23,3,14,3.63a6.56,6.56,0,0,1-.52.86c-1.59,2.24-10.51,13.44-29.37,13.9a37.61,37.61,0,0,1-27.42-10.27,20,20,0,0,1-3.8-4.82C798.27,194.28,804.74,192.83,810.49,191.61ZM733.75,322.09a15.71,15.71,0,0,1-13-7,15.41,15.41,0,0,1-1.22-14.6l45.26-93.15c.36-.57,4.82-7.7,13.11-9,3.83-.6,8.56-1.55,13.41-2.61a22.14,22.14,0,0,0,5.35,7.53c16.75,16.55,50.38,15.86,64.32-4.33a14.62,14.62,0,0,0,1.49-2.71l10.27,2.12c8.09,1.39,11.66,4.59,15.66,10.34,1.52,3.2,22.36,47.66,32.8,84.7,4,14.3-2.08,18.43-6.94,20.24l-20.38,6.94V278a10.43,10.43,0,0,1,2.15-.49c.72-.14,1.55-.27,2.71-.53A2.5,2.5,0,0,0,900.6,274a2.47,2.47,0,0,0-3-1.89c-1.06.24-1.82.33-2.44.47a12.4,12.4,0,0,0-1.36.23V253.12a2.47,2.47,0,0,0-2.48-2.48H875.17c-.63-5.55-2.12-19-3-21.93a2.49,2.49,0,0,0-3.11-1.66,2.53,2.53,0,0,0-1.62,3.11c.63,2,1.92,12.68,2.75,20.48H778.68c1.58-6,3.46-12.09,5.61-18,1.09-3-3.57-4.73-4.66-1.69-2.34,6.44-4.39,13.05-6.11,19.69h-9.84a2.45,2.45,0,0,0-2.48,2.48V293c-9.35-1.26-17.08-.93-22.92.92a2.39,2.39,0,0,0-.8,4.1c1.62,1.55,4.23,0,6.18-.3,5.75-1,11.76-.56,17.54.26v28.68S733.92,322.09,733.75,322.09Zm155.13-66.5v88.3H766.16v-88.3ZM753.31,365.76l8.32-18a2.44,2.44,0,0,0,2,1.09H891.35a2.5,2.5,0,0,0,2.48-2.48L903,365.66c7.56,18.43,5.71,42-4.53,57.35a31.58,31.58,0,0,1-9.38,9.38s-.26-26.92-.26-27c0-3.17-5-3.17-5,0l.43,45.88H768.77L768,405.34a2.47,2.47,0,0,0-2.55-2.42,2.43,2.43,0,0,0-2.41,2.51l.4,24.08a34,34,0,0,1-5.59-6.5C747.62,407.68,745.74,384.09,753.31,365.76ZM800.54,578.2c1.56,1.52,8.16,4.29,14.44,4.29a21.17,21.17,0,0,0,2.54-.13c2.81-.39,7.37-1,9.91-2.48v20.45c-.62,9-10.7,15.43-16,13.91l-16.71-4.89c-5.12-1.49-7.87-9.48-5.85-17.11l8.95-33.93c1.06,8,6.41,14.24,13.71,15.36a16,16,0,0,0,2.18.17,20.46,20.46,0,0,0,13.74-5.68v4.69c-1.38,2.67-8.55,4.33-10.57,4.59-5.45.76-12-2.08-12.85-2.78a2.48,2.48,0,0,0-3.47,3.54Zm13.15-9.32c-7.13,0-11.1-7.07-11.13-13.51l0-12.85c0-.16-18.21-86.28-18.21-86.28h43.11v99.93C826.28,563.76,819.31,568.88,813.69,568.88Zm-105-128.69V428l46.61-.07a34.8,34.8,0,0,0,8.2,7.93l.19,12.52H707.62A30.55,30.55,0,0,0,708.74,440.19ZM456.37,425.78a3.44,3.44,0,0,1,3.4-3.4h65.34A21.84,21.84,0,0,0,547,400.55V386.8c0-15.69,12-29.69,27.41-32.3s31.22,6,36.77,20.84a32.4,32.4,0,0,1,2.08,11.46v13.75a21.86,21.86,0,0,0,21.84,21.83h65.34a3.42,3.42,0,0,1,3.4,3.4v14.41a25.52,25.52,0,0,1-25.5,25.5H481.87a25.54,25.54,0,0,1-25.5-25.5Zm-162,27.59h160a30.49,30.49,0,0,0,27.45,17.27H678.29a30.3,30.3,0,0,0,27.45-17.08h58.1a2.71,2.71,0,0,0,2.48,2.68h12.95l10.21,48.29H294.41ZM147,624.38c.36-26.82,17-38.15,26.79-40.63a2.56,2.56,0,0,0,1.81-1.88c1.69-7.64,18.9-16.42,41.4-16.42,8.72,0,15,1.62,22.72,5.22,4.3,2,9.12,5.45,13.71,6.57a16.61,16.61,0,0,1,11.73,10.57c2.71,7.57-1.26,16.88-7.86,21.31-8.2,5.81-18.9,2.91-28,1.81-9.58-1.12-19.22-4.06-26.72-10.37a5.65,5.65,0,0,0-2.48-1.42,2.52,2.52,0,0,0-2.57,3.11,4.35,4.35,0,0,0,1.58,2,48.24,48.24,0,0,0,11,6.84c1.72.76,3.87,5.74,4.6,7.49,1.38,3.34,2.61,7.63,2.47,11.27,0,.76-2.81,8.78-3.23,8.29-3.67-4.1-10.18-5.22-14.8-3.83a8.44,8.44,0,0,0-5.25,5.35c-1.29,4.19.59,10,5.74,17.64a8.78,8.78,0,0,1,1.62,5.81c-.4,4.1-3.24,8.36-8.65,13.05-1.82,1.59-7.17.89-7.17.89C175.78,673.24,146.45,661.74,147,624.38Zm33.89,56.19a12.76,12.76,0,0,0,15-.69c6.45-5.59,9.85-10.9,10.38-16.36a14,14,0,0,0-2.45-9c-5.55-8.23-5.58-12-5.12-13.45a3.21,3.21,0,0,1,2.12-2.11c2.57-.8,7.4-.27,9.71,2.71a4,4,0,0,0,5.08,1.22c4.17-2,7.5-10.74,6.28-16.52-1.45-6.84-2-9.21-4-12.58,3.37.92,13.41,2.41,14.76,2.61,6.84,1,14.37,2,21.28-.17.53,2.35,1.75,9.08,1.85,10l10,20.85a18.82,18.82,0,0,1-3.76,2.18,10.4,10.4,0,0,1-3.93,1.05,2.49,2.49,0,0,0-1.56,4.36,57.13,57.13,0,0,1-2.28,9.95c-2.47.36-6-.1-7.23-1.85-1.78-2.64-5.88.13-4.1,2.77,2.08,3.14,6,4.07,9.29,4.16a32.31,32.31,0,0,1-4.27,6.58c-6.6,7.76-17.83,11.26-27.84,10.3-.07-2.34-.1-4.65-.1-6.8,0-3.2-5-3.17-5,0,.07,7.24.2,12.95.4,17.41-13.25-1.19-27.52-2.31-40.07-1.82C176.28,693.06,180.37,681.92,180.87,680.57Zm69.63.26v41.59l-9.44-16.65c-1.32-2.31-5-4.16-7.27-5.25a25.9,25.9,0,0,0-9-2.44l-4.33-.4c-.1-1.95-.17-4-.23-6.08a45.16,45.16,0,0,0,17-2.24,33.24,33.24,0,0,0,7.24-3.47C245.52,685.19,250.5,682.22,250.5,680.83ZM136.74,853.4a2.09,2.09,0,0,0,.1-.76L135,773.76a2.48,2.48,0,0,0-4.95.1l.49,20.87L115.7,821.85a2.47,2.47,0,0,0,.19,2.68l15.83,21,.16,6.83-10,33L76.19,829.15a10.75,10.75,0,0,1-1.42-11.69s56-93,57-94.57c7.2-11.17,14.44-17.41,22.83-19.92l10-1.56c15.13-2.37,36.54-.46,53.75,1.06l6,.53a20.85,20.85,0,0,1,12.62,5.58l50.7,89.32a34.5,34.5,0,0,0-4,11c-.57,3.1,4.26,4,4.89.86a29.71,29.71,0,0,1,3.27-9.22c.16,0,55.36-42.15,55.36-42.15l22.23,21.27-66.3,61.15a18.2,18.2,0,0,1-25.27,2.51S213.51,760,209.57,754.7a2.48,2.48,0,1,0-4,3c4.13,5.52,39.77,53.25,39.91,53.45-6,32.31-7.3,84-7.83,104.91-.1,2.94-.17,5.59-.23,7.2-86.92,20.15-114.43-4.62-118.93-9.61ZM131.52,837l-10.7-14.17,9.9-18.2ZM370,744.29a2.38,2.38,0,0,0,2.7.43c8.59-4.49,37.3-13.11,40.4-10.21,2.38,3.7,2.78,9.58,1,15-1.85,5.78-5.82,9.42-11.17,12.09A301,301,0,0,1,372,775.41l-21.67-20.75c1.39-3.13,3.54-6.83,5-8.19.44-.4,10.67-9.78,11.9-16.32.26-1.32,1.58-.85,2.57-.66a10.33,10.33,0,0,1,1.82,4.3,52.84,52.84,0,0,1-2.44,7.86A2.41,2.41,0,0,0,370,744.29Zm57.28,47A5.74,5.74,0,0,1,433,797v88.07a5.74,5.74,0,0,1-5.74,5.74H339.2a5.74,5.74,0,0,1-5.72-5.74V819.54l30.69-28.28ZM250.5,817.82V967.93l-8.19-42.81c.13-1.36.2-3.9.3-9,.53-19.85,1.75-67.61,7-99.59C249.91,817,250.21,817.43,250.5,817.82ZM106.15,1223l7.73-151.82,4.19-151.1c7.17,6.08,24.12,16,58.87,16,16.18,0,36.24-2.15,60.91-7.83l27.72,144.66-22.13,147.39H216a1.65,1.65,0,0,0,0,3.3h27l-1.29,8.66-32,.66,19.72-171.15a1.19,1.19,0,0,0,0-.46l-20.12-116a1.66,1.66,0,0,0-1.91-1.35,1.71,1.71,0,0,0-1.36,1.92L226,1061.61l-18.27,158.66H177l16.28-148.88v-.23c0-.23-36.14-126.32-36.14-126.32a2.5,2.5,0,0,0-3.07-1.72,2.46,2.46,0,0,0-1.68,3.07l27.81,97v.06l-5.05,29.37-13.74,140.29s-46.09-4.86-46.09-4.86a1.61,1.61,0,0,0-1.78,1.46,1.63,1.63,0,0,0,1.45,1.81l46.12,4.83-1,10.3Zm144.35-16.38v41.59a203.85,203.85,0,0,1-21.4-9l-.53-1.78,15.29-.3a2.46,2.46,0,0,0,2.38-2.11Zm-73.83,16.94h30.69l-1.09,9.39-30.69.62Zm-6.21,11.5-8.22-3.57h.1a2.48,2.48,0,0,0,2.48-2.21l15.29-156,3.3-19.06,4.92,17.17v0Zm7.47,3.4,45.45-.92.47,1.52c-4.07,1.09-12,4.26-23.36,13.54a8,8,0,0,1-4.62,1.09c-6.35,0-16.39-3.9-18.3-10.93Zm-22.73-7.4c-4.49,1.82-11.2,5.42-19.82,12.69a8.31,8.31,0,0,1-4.79,1.12c-6.47,0-16.25-3.7-18.23-10.67l.43-5.81Zm-50.7,43.74c-.2-1.29-.5-3.17-.7-5.42l59.46-.79c0,1.88,0,4.52,0,6.21C163.3,1274.81,107.5,1274.78,104.5,1274.81Zm58.93-9.51-41.62.56c-.83-6.54-4.56-12.69-10.64-17.41a1.65,1.65,0,0,0-2,2.61c5.22,4.06,8.53,9.28,9.29,14.83l-14.94.2c-.46-7.83,0-18.57,4.43-27,.23-.39.43-.76.63-1.09,4,8,15,11.8,22,11.8,3.44,0,6.18-.8,8-2.28,7.33-6.18,13.11-9.52,17-11.3a25,25,0,0,1,5.72-2c1.58.83,11.46,5.71,11.46,6.08a13,13,0,0,0-4.06,4.85C165.34,1251.45,163.89,1258.66,163.43,1265.3Zm129.36,17.9c-3.31,0-120.61.06-123.61,0-.2-1.29-.47-3.14-.67-5.42H287.57a1.65,1.65,0,0,0,0-3.3H186.62c-.33-3.37-1.19-6.24-2.41-7.86-.9-1.19-3.11-.6-2.94,1a4.47,4.47,0,0,0,.56,1.46,13.2,13.2,0,0,1,1.48,5.38h-15a64.43,64.43,0,0,1,1.42-17.84,27,27,0,0,1,7.63,6,4.19,4.19,0,0,0,2.11,1.65,1.6,1.6,0,0,0,1.52-2.57,32.83,32.83,0,0,0-10.37-8.29,33.45,33.45,0,0,1,2.44-5.82,6.53,6.53,0,0,1,.66-1c3.9,8.22,15,12.09,22.14,12.09,3.3,0,6-.76,7.76-2.22,13-10.6,20.94-12.58,22.92-13,.67.33,1.79.89,3.27,1.59-4.62,2.31-7.59,6.41-9.21,12.65a1.65,1.65,0,0,0,3.2.83c1.69-6.48,4.83-10,10.28-11.53,1.55.69,3.27,1.42,5.12,2.18-3.51,3.17-7.11,8.35-6.87,13.11.1,2.12,3.43,2,3.27-.16-.17-3.7,3.43-8.82,7-11.57,2.28.9,4.73,1.82,7.2,2.65a23.65,23.65,0,0,0-7,11c-.53,2,2.61,3,3.17.93a20.5,20.5,0,0,1,4.52-7.93,19.7,19.7,0,0,1,3.11-2.81c.63.2,1.22.36,1.85.53a60.4,60.4,0,0,0,16.25,2.81,25.9,25.9,0,0,0,3.77-.27c5.25-.79,9.25.37,12.09,3.57,3.07,3.44,4.42,8.69,4.95,13.41C292.72,1276.26,292.82,1282.21,292.79,1283.2Zm4.32-7.29c-.59-5.64-1.81-13.59-5.84-18.11s-9.58-6.21-16.55-5.16a19.91,19.91,0,0,1-3,.2c-4.69,0-10.47-1.25-16.25-3v-76.25l15.06-100.42a2.06,2.06,0,0,0,0-.82l-15-78.52V824.1q8.67,10.46,17.34,20.94a21.19,21.19,0,0,0,16.42,7.27l.23,393a2.45,2.45,0,0,0,2.48,2.48H690.31a2.45,2.45,0,0,0,2.48-2.48,2.48,2.48,0,0,0-2.48-2.48H294.41V851.68a22.31,22.31,0,0,0,12.25-7.4l21.87-20.15v60.92a10.69,10.69,0,0,0,10.67,10.7h88.07a10.7,10.7,0,0,0,10.7-10.7V797a10.69,10.69,0,0,0-10.7-10.67H369.56l5.12-4.72a4.42,4.42,0,0,0,.76-2.15c9.84-3.67,29.92-13.48,29.92-13.48,6.28-2.41,11.17-7.86,13.48-14.9s1.62-14.27-1.65-19.32c-4.82-6.67-30.19,2-41.49,6.37a27.6,27.6,0,0,0,.89-3.66c.33-2.51-2.14-8.92-5.18-9.68-2.18-.53-4.66-.93-6.58.3a6,6,0,0,0-2.41,4.16C361.7,733,355,740.13,352,742.8c-2.12,2-4.86,6.74-6.51,10.67l-51.1,39v-283H790.53l6.71,31.74L784.06,591c-2.78,10.44,1.39,20.82,9.25,23.13L810,619a12.41,12.41,0,0,0,3.11.43c6.51,0,13.25-4.37,16-11.63,2.35,6.93,7.77,10.93,14.21,10.93a11.45,11.45,0,0,0,3.63-.59l17-5.65c7.83-2.61,12.32-13.12,10-23.39l-11-48.3,5.55-31.31H882.8V785.42s-50.35-63.62-50.74-63.89l-76.51-41.72c-.1-.63-43.07-32.31-43.4-32.54a2.48,2.48,0,0,0-3.74,2.91s20.15,49.81,20.72,50.08l12.19,47.8H478.93a2.48,2.48,0,1,0,0,5H742.57l5.19,20.25H478.93a2.48,2.48,0,0,0-2.48,2.48,2.51,2.51,0,0,0,2.48,2.48H749a13.12,13.12,0,0,0,2.31,7.89c.63.93,49.59,64.42,49.59,64.42-7.34,7-13.94,15.23-11.13,20.25,3.66,5.94,11.49,10.86,19.48,12.32a25.5,25.5,0,0,0,4.6.43,19.06,19.06,0,0,0,10.43-2.88l58.18,74.89v287.29H707.39a2.5,2.5,0,0,0-2.48,2.48,2.47,2.47,0,0,0,2.48,2.48H884.94a2.45,2.45,0,0,0,2.48-2.48V961.92l34,43.73v243.29a20.87,20.87,0,0,1-3.86-.16c-6.22-.93-11.27.66-14.8,4.66-5.26,5.88-6.31,17-6.18,22.47ZM804,854.39l17.31,22.3c-2.91,1.78-6.81,2.31-11.1,1.52-6.61-1.19-13.25-5.32-16.12-9.94C793,866.42,797.93,860.34,804,854.39Zm149.64,421.52h-52.1c0-.89.37-3.35.4-4.5h52.39C954.08,1272.89,953.62,1274.56,953.59,1275.91Zm1.29-7.81H902.16c.46-4.06,1.61-8.45,4.26-11.36a9.73,9.73,0,0,1,7.76-3.27c2,0,3.9.43,5.88.43a31.31,31.31,0,0,0,5.91-.53c2.31,2.87,6,4,9.61,4,.57,0,1.13,0,1.72-.06,3.31-.33,33.14-11.23,33.27-11.37.53-.52,4.32,2.71,4.75,3,1,.8,5.12,4.33,5.78,4.33a25.59,25.59,0,0,1-7.79.73c-6.31-.63-11,1.12-14.3,5.12A20.65,20.65,0,0,0,954.88,1268.1ZM967,1243.92c-3.87,1.49-27.12,9.78-30,10a11.38,11.38,0,0,1-7.07-1.39c12.56-2.84,26.66-9.68,30-11.33h0A28.19,28.19,0,0,1,967,1243.92Zm-6.94-23.25h34l.76,9.18-34.61.59Zm2.55,16.15.46-1.49,32.14-.56.33,3.83a2.48,2.48,0,0,0,2.48,2.28l13.08-1.09.36.9a178.73,178.73,0,0,1-19.06,9c-.86,0-1.75.06-2.57.06-4.3,0-6.35-.72-6.81-1.12C973.24,1240.75,966.31,1237.88,962.61,1236.82Zm36.56-14.34,31.58-2.41,1.39,13-31.88,2.68Zm16,21.81h0a46.35,46.35,0,0,1,8,2.61c-6.77,4.12-20.15,11.39-22.89,12.19a15.43,15.43,0,0,1-10.87-1,8.85,8.85,0,0,1-2.11-1.38C999.31,1253,1012,1246.07,1015.16,1244.29Zm2.55-4.6.1-.46,39.37-3.3.73,5c-1.39,6.25-10.31,10.21-16,10.21a5.54,5.54,0,0,1-3.18-.69C1028.51,1243,1021.44,1240.52,1017.71,1239.69Zm7.89-99.82,26.56,34.22,4.33,40.7-22.76,1.71Zm4.82,76.9-31.54,2.41-10.57-127.34,33.46,43.1Zm-36.66.59H960l-2.38-165,25.07,32.31Zm-36,18.07h.07l-.47,1.52c-3.89,2-19.06,9.22-31,11.4V1012l26.23,33.79L955.27,1233a2.51,2.51,0,0,0,.76,1.75A2.56,2.56,0,0,0,957.75,1235.43Zm104.35,9.78a30.22,30.22,0,0,1,2.38,4.76,28.44,28.44,0,0,0-8.55,7.69,1.63,1.63,0,0,0,2,2.42,4.73,4.73,0,0,0,1.46-1.46,23,23,0,0,1,6.14-5.45,58.34,58.34,0,0,1,2,15.1l-12.72.69c.44-1.68.83-3.37,1.26-5a3.34,3.34,0,0,0,.13-1.29c-.26-1.55-2.48-1.42-3-.17a20.92,20.92,0,0,0-1.58,6.68L963,1273.92a1.65,1.65,0,0,0,.07,3.3h.1l104.29-5.62c-.07,1.76-.17,3.21-.27,4.27-2.67.16-105.11,5.64-108.12,5.81-.49-5.12-.42-14.47,3.7-19.39a10.14,10.14,0,0,1,8.23-3.47,15.93,15.93,0,0,1,1.78.1,33.68,33.68,0,0,0,11-1.22,11.19,11.19,0,0,0,4.2,3.37,18.8,18.8,0,0,0,13.24,1.19c3.54-1,19.3-9.72,25.41-13.61a75.89,75.89,0,0,1,9.12,5.84,10.2,10.2,0,0,0,6.11,1.65c6.57,0,16.45-4,19.92-11.36C1061.9,1244.91,1062,1245.08,1062.1,1245.21Zm-3.9-14.34-22.75,1.92-1.39-13,22.79-1.75ZM756,784.26c-6.77-13.54,9.94-28.14,21.8-17.64.43.76,31.88,41.33,32.08,41.59,1.88,2.41,5.88-.56,3.89-3,0,0-31.61-40.86-32-41.62a14,14,0,0,1-1.43-8.19c1.43-11.07,15.17-16.42,23.56-9,.62.57,122.78,157.71,122.78,157.74a6.39,6.39,0,0,0,.76,5.05,25.34,25.34,0,0,0,8.39,6.71l194.77,250.89-22.46,17.44L823.27,816.73c-1.95-2.51-5.91.47-3.93,3L1104.52,1187l-22.5,17.44S756.08,784.53,756,784.26Z"/><path class="cls-5" d="M385.7,866.45a6.63,6.63,0,0,1-6-3.77l-19.27-41.74c-3.52-7.63,8.41-13.31,12-5.54l15.08,32.66,56.33-62.27c5.65-6.26,15.53,2.52,9.8,8.86l-63,69.69A6.45,6.45,0,0,1,385.7,866.45Z"/><path class="cls-5" d="M840.5,301.94a10.45,10.45,0,1,1-10.45-10.44A10.44,10.44,0,0,1,840.5,301.94Z"/><path d="M830.05,314.86A12.92,12.92,0,1,1,843,301.94,12.92,12.92,0,0,1,830.05,314.86Zm0-20.88a8,8,0,1,0,8,8A8,8,0,0,0,830.05,294Z"/></svg>